/* XPM */
static char * C:\Users\Asus\Desktop\Maxou\cole_xpm[] = {
"40 40 691 2",
"  	c None",
". 	c #D1C5C9",
"+ 	c #CDC1C5",
"@ 	c #C4B8BC",
"# 	c #C2B6BA",
"$ 	c #D9CDD1",
"% 	c #E5D9DD",
"& 	c #D5C9CD",
"* 	c #CABEC2",
"= 	c #DACBB6",
"- 	c #E4D1A9",
"; 	c #D6C3AE",
"> 	c #ECCD88",
", 	c #F7CF73",
"' 	c #E2BDA5",
") 	c #E2BEA5",
"! 	c #E1C5A6",
"~ 	c #DAC6AD",
"{ 	c #D4C5C3",
"] 	c #D9C6BA",
"^ 	c #D9C4BA",
"/ 	c #D5BFB7",
"( 	c #ECC770",
"_ 	c #FCC50B",
": 	c #FDB202",
"< 	c #FDAC03",
"[ 	c #FDB002",
"} 	c #FCC109",
"| 	c #F2CD67",
"1 	c #DCC7BE",
"2 	c #D9C3BA",
"3 	c #DCC8BE",
"4 	c #D5C5C2",
"5 	c #E2C59E",
"6 	c #FCC927",
"7 	c #FCBC28",
"8 	c #FCB628",
"9 	c #FCBA15",
"0 	c #FDB903",
"a 	c #FDB103",
"b 	c #FFA909",
"c 	c #FEAB04",
"d 	c #FDB403",
"e 	c #FDBD16",
"f 	c #FCBB27",
"g 	c #FCB527",
"h 	c #FDC42A",
"i 	c #E7C592",
"j 	c #E7C199",
"k 	c #F8BF4F",
"l 	c #FEBD0C",
"m 	c #FDA90A",
"n 	c #FDA70A",
"o 	c #F9A804",
"p 	c #FAB901",
"q 	c #FDD202",
"r 	c #FEE402",
"s 	c #F8EA02",
"t 	c #FCDB06",
"u 	c #FBBE05",
"v 	c #FAA401",
"w 	c #FEA502",
"x 	c #FEA702",
"y 	c #FEBC03",
"z 	c #F9C347",
"A 	c #F3C463",
"B 	c #EEC66F",
"C 	c #C9B9B6",
"D 	c #D3C2BC",
"E 	c #EBC787",
"F 	c #ECC288",
"G 	c #F6B159",
"H 	c #FDA905",
"I 	c #FEB408",
"J 	c #FECF06",
"K 	c #FECF0A",
"L 	c #FBD104",
"M 	c #FAD900",
"N 	c #FCE302",
"O 	c #FEEC04",
"P 	c #FBEF04",
"Q 	c #FDE805",
"R 	c #FDDA03",
"S 	c #FCD002",
"T 	c #FFD305",
"U 	c #FFD102",
"V 	c #FBBA01",
"W 	c #FCAE01",
"X 	c #FEB502",
"Y 	c #FBC42D",
"Z 	c #EAC47A",
"` 	c #D4C0B3",
" .	c #D7C7BC",
"..	c #E6C994",
"+.	c #FDC312",
"@.	c #FCB902",
"#.	c #FCBD01",
"$.	c #FDC901",
"%.	c #FFE902",
"&.	c #FFE907",
"*.	c #FBE603",
"=.	c #FAE601",
"-.	c #FCE703",
";.	c #FFE505",
">.	c #FFDC05",
",.	c #FFE103",
"'.	c #FEE801",
").	c #FEED02",
"!.	c #FEED04",
"~.	c #FFEB02",
"{.	c #FBCC01",
"].	c #FEBC02",
"^.	c #FDB803",
"/.	c #FEC208",
"(.	c #EBCA8E",
"_.	c #D8C8B8",
":.	c #DCC49D",
"<.	c #F7C902",
"[.	c #FBB408",
"}.	c #FDB804",
"|.	c #FCD802",
"1.	c #FBEB00",
"2.	c #FCEB00",
"3.	c #FEEA06",
"4.	c #FADC03",
"5.	c #FAD802",
"6.	c #FDDF04",
"7.	c #FEE001",
"8.	c #FEC802",
"9.	c #FED301",
"0.	c #FDE401",
"a.	c #FCED00",
"b.	c #FDEA00",
"c.	c #FFEA03",
"d.	c #FEE702",
"e.	c #FEDC03",
"f.	c #FDB904",
"g.	c #FEB40F",
"h.	c #F9C505",
"i.	c #E8CC9D",
"j.	c #D9B598",
"k.	c #F8B002",
"l.	c #FDB401",
"m.	c #FFDC07",
"n.	c #FFE905",
"o.	c #FFEE01",
"p.	c #FEF000",
"q.	c #FBF104",
"r.	c #FCE003",
"s.	c #FDD002",
"t.	c #FECE02",
"u.	c #FEC502",
"v.	c #FDCE02",
"w.	c #FEDF02",
"x.	c #FEF201",
"y.	c #FFEE09",
"z.	c #FFEC04",
"A.	c #FFEA04",
"B.	c #FEE807",
"C.	c #FEE307",
"D.	c #FBB90A",
"E.	c #FDA804",
"F.	c #EAB89A",
"G.	c #E6C596",
"H.	c #F9CA4C",
"I.	c #FDCE09",
"J.	c #FED501",
"K.	c #FEE605",
"L.	c #FDEA03",
"M.	c #FDE601",
"N.	c #FEDF01",
"O.	c #FDDB02",
"P.	c #FDD602",
"Q.	c #FDD102",
"R.	c #FECD02",
"S.	c #FECB02",
"T.	c #FED902",
"U.	c #FEDE01",
"V.	c #FDDA02",
"W.	c #F8DE03",
"X.	c #FCE402",
"Y.	c #FEEB01",
"Z.	c #FEF001",
"`.	c #FDD703",
" +	c #FDCD02",
".+	c #F9C946",
"++	c #E9C68C",
"@+	c #EBBD87",
"#+	c #FEC107",
"$+	c #FED309",
"%+	c #FEE901",
"&+	c #FEEC05",
"*+	c #FEE803",
"=+	c #FDD401",
"-+	c #FDB603",
";+	c #FDBC08",
">+	c #FEC703",
",+	c #FECC05",
"'+	c #FCC705",
")+	c #FBBB02",
"!+	c #FEB202",
"~+	c #FEB402",
"{+	c #FEB702",
"]+	c #FCBD02",
"^+	c #FBC602",
"/+	c #FDCF02",
"(+	c #FBD202",
"_+	c #FDDB05",
":+	c #FDE603",
"<+	c #FBED01",
"[+	c #FAEE02",
"}+	c #FDEC02",
"|+	c #FDD802",
"1+	c #FEC603",
"2+	c #EFBD75",
"3+	c #E0CCAB",
"4+	c #F3BF6C",
"5+	c #FDBD04",
"6+	c #FED505",
"7+	c #FEF200",
"8+	c #FBEF03",
"9+	c #FDE802",
"0+	c #FECF01",
"a+	c #FDAA03",
"b+	c #FDAE08",
"c+	c #FEC303",
"d+	c #FEC905",
"e+	c #FDC305",
"f+	c #FBB502",
"g+	c #FEAB02",
"h+	c #FEAD02",
"i+	c #FEB002",
"j+	c #FCB302",
"k+	c #FECC02",
"l+	c #FED005",
"m+	c #FDDD04",
"n+	c #FBE901",
"o+	c #F9EE04",
"p+	c #FBF403",
"q+	c #FED805",
"r+	c #FEC103",
"s+	c #F5BF60",
"t+	c #DFCAA2",
"u+	c #D2C6C7",
"v+	c #CCBFBF",
"w+	c #D8C4B2",
"x+	c #F5D060",
"y+	c #FDCA0F",
"z+	c #FDCD03",
"A+	c #F9EF00",
"B+	c #FCE901",
"C+	c #FEDC02",
"D+	c #FDC902",
"E+	c #FCCA03",
"F+	c #FCC902",
"G+	c #FDCC03",
"H+	c #FDC903",
"I+	c #FED502",
"J+	c #FAF004",
"K+	c #FDDD07",
"L+	c #FECC06",
"M+	c #FDC80D",
"N+	c #F6CF52",
"O+	c #D0C2C0",
"P+	c #D5C3B8",
"Q+	c #FAD03C",
"R+	c #FDBB10",
"S+	c #FECC01",
"T+	c #FEE502",
"U+	c #FFF204",
"V+	c #FFEC02",
"W+	c #FFEA02",
"X+	c #FFED02",
"Y+	c #FFF202",
"Z+	c #FEF100",
"`+	c #FDD902",
" @	c #FECF02",
".@	c #FED702",
"+@	c #FAF304",
"@@	c #F8F201",
"#@	c #FBF401",
"$@	c #FDF104",
"%@	c #FEE405",
"&@	c #FECC07",
"*@	c #FED705",
"=@	c #FDE701",
"-@	c #FBEE00",
";@	c #FDF202",
">@	c #FDE906",
",@	c #FECD07",
"'@	c #F7AF4E",
")@	c #D0C0C0",
"!@	c #D3C2B5",
"~@	c #FCD740",
"{@	c #FDBD14",
"]@	c #FDC701",
"^@	c #FEDD02",
"/@	c #FCEE01",
"(@	c #FCEE00",
"_@	c #FDED01",
":@	c #FEEA02",
"<@	c #FCE900",
"[@	c #FDD702",
"}@	c #FEE601",
"|@	c #FEDA02",
"1@	c #FDC203",
"2@	c #FDBB03",
"3@	c #FEDD08",
"4@	c #FEC507",
"5@	c #F8B650",
"6@	c #CDBDBD",
"7@	c #D5C4B8",
"8@	c #FCD43E",
"9@	c #FED016",
"0@	c #FDE703",
"a@	c #FEEC01",
"b@	c #FEEC02",
"c@	c #FEEB02",
"d@	c #FBEC00",
"e@	c #FDD402",
"f@	c #FEE101",
"g@	c #FEE701",
"h@	c #FFE502",
"i@	c #FCDB01",
"j@	c #FBD101",
"k@	c #FECA02",
"l@	c #FEB102",
"m@	c #FAAA01",
"n@	c #FBCA03",
"o@	c #FEEA03",
"p@	c #FDEF03",
"q@	c #FDEA04",
"r@	c #FDDE03",
"s@	c #FCD331",
"t@	c #ECCA78",
"u@	c #D4C1B4",
"v@	c #D3C1B5",
"w@	c #FCD13D",
"x@	c #FEDC14",
"y@	c #FDE705",
"z@	c #FDEC04",
"A@	c #FFEC01",
"B@	c #FFED01",
"C@	c #FBEE02",
"D@	c #FED205",
"E@	c #FECE03",
"F@	c #FED202",
"G@	c #FED602",
"H@	c #FED905",
"I@	c #FFDB02",
"J@	c #FCCE03",
"K@	c #FBCC04",
"L@	c #FEC902",
"M@	c #FBC603",
"N@	c #FCD705",
"O@	c #FEED01",
"P@	c #FEEE02",
"Q@	c #FDF001",
"R@	c #FDEC00",
"S@	c #FEE20C",
"T@	c #FED32B",
"U@	c #D9C3AC",
"V@	c #FCD13E",
"W@	c #FEE012",
"X@	c #FEE903",
"Y@	c #FFEB04",
"Z@	c #FCEC05",
"`@	c #FDD307",
" #	c #FECC04",
".#	c #FDC403",
"+#	c #FEBE08",
"@#	c #FEBA05",
"##	c #FEB903",
"$#	c #FCBB05",
"%#	c #FCC306",
"&#	c #FDD302",
"*#	c #FFE202",
"=#	c #FEE305",
"-#	c #FEE406",
";#	c #FFE804",
">#	c #FEEE01",
",#	c #FEED00",
"'#	c #FEE00D",
")#	c #FFD32E",
"!#	c #DBC5AE",
"~#	c #FDD140",
"{#	c #FEE014",
"]#	c #FEE902",
"^#	c #FEEC06",
"/#	c #F8D701",
"(#	c #FBCE01",
"_#	c #FBC102",
":#	c #F9AC02",
"<#	c #FC9902",
"[#	c #FF9B08",
"}#	c #FD9A05",
"|#	c #F99F01",
"1#	c #F8B201",
"2#	c #F9CE01",
"3#	c #FBD901",
"4#	c #FFEF01",
"5#	c #FEDB0E",
"6#	c #FDD141",
"7#	c #FDE116",
"8#	c #FBEB05",
"9#	c #FAF003",
"0#	c #FAEF01",
"a#	c #FBEE01",
"b#	c #FED102",
"c#	c #FDD601",
"d#	c #FED401",
"e#	c #FED402",
"f#	c #FDD801",
"g#	c #FDDE01",
"h#	c #FFCD08",
"i#	c #FDD004",
"j#	c #FFE112",
"k#	c #D9C7BC",
"l#	c #FDD242",
"m#	c #FED516",
"n#	c #FDDD03",
"o#	c #FBE701",
"p#	c #FAEC00",
"q#	c #FEEB04",
"r#	c #FFEC03",
"s#	c #FCEA00",
"t#	c #FED304",
"u#	c #FEDF06",
"v#	c #FEE704",
"w#	c #FFE702",
"x#	c #FEEA01",
"y#	c #FDEE02",
"z#	c #FECF04",
"A#	c #FECD03",
"B#	c #FED403",
"C#	c #FCEF00",
"D#	c #FEE703",
"E#	c #FEE202",
"F#	c #FED810",
"G#	c #FFD330",
"H#	c #DBC6AE",
"I#	c #D4C2B8",
"J#	c #F7C93D",
"K#	c #FCC612",
"L#	c #FCEF01",
"M#	c #FDEB03",
"N#	c #FDEC01",
"O#	c #FDE801",
"P#	c #FED504",
"Q#	c #FEEF03",
"R#	c #FEDE02",
"S#	c #FEC702",
"T#	c #FEC803",
"U#	c #FEE004",
"V#	c #FBEF02",
"W#	c #FEDA01",
"X#	c #FCC60B",
"Y#	c #F9C828",
"Z#	c #DCC6B2",
"`#	c #D5C4BF",
" $	c #E7BD74",
".$	c #F8BF3A",
"+$	c #FCD309",
"@$	c #FCE701",
"#$	c #FDF102",
"$$	c #FEE906",
"%$	c #FCEA03",
"&$	c #FEE401",
"*$	c #FEEC00",
"=$	c #FFE802",
"-$	c #FDE003",
";$	c #F9CA01",
">$	c #FBC902",
",$	c #FDBE02",
"'$	c #FDBD03",
")$	c #FDD904",
"!$	c #F9F003",
"~$	c #FDED02",
"{$	c #FEE501",
"]$	c #FED407",
"^$	c #FABB2E",
"/$	c #E9BD6C",
"($	c #D4C0B5",
"_$	c #F4C96E",
":$	c #FACE18",
"<$	c #FADA01",
"[$	c #FFE903",
"}$	c #FCEC03",
"|$	c #FCE800",
"1$	c #FEDB01",
"2$	c #FAD901",
"3$	c #F8D404",
"4$	c #FFC609",
"5$	c #FDB003",
"6$	c #FDAC02",
"7$	c #FDCA05",
"8$	c #FDDF08",
"9$	c #F7EE01",
"0$	c #FBEA00",
"a$	c #FDDC01",
"b$	c #FCCF29",
"c$	c #F5C866",
"d$	c #D0C1C1",
"e$	c #F3CA74",
"f$	c #FCC427",
"g$	c #FDCB05",
"h$	c #FEE008",
"i$	c #FDF303",
"j$	c #FDD101",
"k$	c #FDB901",
"l$	c #FDB302",
"m$	c #FDB701",
"n$	c #FDC106",
"o$	c #FDCA06",
"p$	c #FDC908",
"q$	c #FEC704",
"r$	c #FDC002",
"s$	c #FCB801",
"t$	c #FDB602",
"u$	c #FEAC06",
"v$	c #FFCA05",
"w$	c #FDE602",
"x$	c #FBE902",
"y$	c #FDEC05",
"z$	c #F1C174",
"A$	c #D2C2BD",
"B$	c #D1C5C8",
"C$	c #DCC6B5",
"D$	c #F0C074",
"E$	c #FBC804",
"F$	c #F9DD04",
"G$	c #FAF101",
"H$	c #FECD01",
"I$	c #FEA902",
"J$	c #FDBC07",
"K$	c #FDC607",
"L$	c #FEC602",
"M$	c #FED303",
"N$	c #FDC703",
"O$	c #FDB402",
"P$	c #FEAC02",
"Q$	c #FDB801",
"R$	c #FCE202",
"S$	c #FAEB04",
"T$	c #FDE206",
"U$	c #FECE0A",
"V$	c #EFBF78",
"W$	c #DCC0AA",
"X$	c #EDC373",
"Y$	c #FAD003",
"Z$	c #FEE005",
"`$	c #FCE902",
" %	c #FDE902",
".%	c #FEDD05",
"+%	c #FECE05",
"@%	c #FDC204",
"#%	c #FEB602",
"$%	c #FEBD01",
"%%	c #FECA03",
"&%	c #FCD601",
"*%	c #FEE904",
"=%	c #FDEF0A",
"-%	c #FEF007",
";%	c #FBE002",
">%	c #FDD405",
",%	c #F2C86C",
"'%	c #DFC0A5",
")%	c #E2C0A3",
"!%	c #FCBE04",
"~%	c #FED707",
"{%	c #FEE805",
"]%	c #FFEC08",
"^%	c #FFEC07",
"/%	c #FEEF01",
"(%	c #FDEE01",
"_%	c #FBB601",
":%	c #FBBC01",
"<%	c #FEC102",
"[%	c #FEF102",
"}%	c #FCF000",
"|%	c #FEEE04",
"1%	c #FFEA0E",
"2%	c #FFEC0A",
"3%	c #FED204",
"4%	c #FEC203",
"5%	c #ECC59D",
"6%	c #DEBEA8",
"7%	c #F4B541",
"8%	c #FED701",
"9%	c #FEE808",
"0%	c #FAF000",
"a%	c #FCCA02",
"b%	c #FBC002",
"c%	c #F7D501",
"d%	c #F8CF02",
"e%	c #FEA301",
"f%	c #FED703",
"g%	c #FEF103",
"h%	c #FCD203",
"i%	c #FFC708",
"j%	c #FBB641",
"k%	c #E9C0A4",
"l%	c #CEC0C2",
"m%	c #DABDAD",
"n%	c #FDAF14",
"o%	c #FAD202",
"p%	c #F7D201",
"q%	c #F8D902",
"r%	c #FFE908",
"s%	c #FDE804",
"t%	c #FEE507",
"u%	c #FEE708",
"v%	c #FEE506",
"w%	c #FEE002",
"x%	c #FFE302",
"y%	c #FEE705",
"z%	c #F9EA03",
"A%	c #FCDC02",
"B%	c #FCD001",
"C%	c #F7CF00",
"D%	c #FDAB02",
"E%	c #E8C3B0",
"F%	c #D7C8C9",
"G%	c #D4C4C4",
"H%	c #DEBFAF",
"I%	c #F6AD53",
"J%	c #FCAD02",
"K%	c #FCC201",
"L%	c #FCDA01",
"M%	c #F8DB01",
"N%	c #FCDE02",
"O%	c #FDEA06",
"P%	c #FAEF02",
"Q%	c #FFEF05",
"R%	c #FFED05",
"S%	c #F8D800",
"T%	c #FBD902",
"U%	c #FED106",
"V%	c #FEBF09",
"W%	c #FCAD07",
"X%	c #F7AB3E",
"Y%	c #E4BEAB",
"Z%	c #D1BFBE",
"`%	c #DEB09E",
" &	c #E1AC8E",
".&	c #EEB573",
"+&	c #FDBA02",
"@&	c #FDB902",
"#&	c #FBCB05",
"$&	c #FDD706",
"%&	c #FEDF05",
"&&	c #FDE303",
"*&	c #FBE601",
"=&	c #FEE302",
"-&	c #FEE503",
";&	c #F8CE29",
">&	c #E9CC8F",
",&	c #F6B958",
"'&	c #F2B26C",
")&	c #E5B295",
"!&	c #E4B39E",
"~&	c #D3C3C5",
"{&	c #D5AFA4",
"]&	c #EBA373",
"^&	c #EFAB78",
"/&	c #FCBC35",
"(&	c #FEC708",
"_&	c #FECA05",
":&	c #FECA01",
"<&	c #FECB01",
"[&	c #FDC502",
"}&	c #FBBF3D",
"|&	c #D7C4BE",
"1&	c #E6B199",
"2&	c #DEB4A4",
"3&	c #D2C5C8",
"4&	c #F3B377",
"5&	c #F8AA53",
"6&	c #F9A754",
"7&	c #F9A554",
"8&	c #F8A852",
"9&	c #F8A551",
"0&	c #F8A652",
"a&	c #F8A853",
"b&	c #F4AA62",
"c&	c #D3BEBC",
"d&	c #D4C3C4",
"e&	c #D7C7C8",
"f&	c #D0BFC0",
"g&	c #D3C4C5",
"h&	c #DCD0D4",
". . + @ # @ $ % & . * * * + + * & . + * * + . . + . & . + * @ * * + . . + + + . ",
"@ * . & + + . & . . * + + . + * . + + + + + . . . . . . * * * @ + + . . . + . . ",
"# + & & . . + * + + + + + . + * + = - + . + . . . + . + @ # @ @ + . . . . + + + ",
"+ + . . + + + . + + . . . . + * ; > , ' ' ) ! ~ . . + + * * * . + . . . + + + + ",
"& . . + * * . . * + . . { ] ^ / ( _ : < < [ } | 1 2 3 4 . . & $ + + + + + + + @ ",
"+ + + . . . + * + + . . 5 6 7 8 9 0 a b b c d e f g h i + + + & + * + * + + * * ",
"* * . . . . + * + . . j k l m n o p q r s t u v w x y z A B C * . + + + . & . + ",
". + + + + . . . D E F G H I J K L M N O P Q R S T U V W X Y Z ` . . + + & $ . . ",
". + . . & & .  ...+.0 @.#.$.%.&.*.=.-.;.>.,.'.).!.~.{.#.].^./.(._.. . . . . . . ",
"+ * * * + . + :.<.[.}.|.1.2.%.3.4.5.6.7.8.9.0.a.b.c.d.d.e.f.g.h.i.& & . + + * * ",
"* * * * + * * j.k.l.m.n.o.p.%.q.r.s.t.q u.v.w.o.x.y.z.A.B.C.D.E.F.& . . + * @ @ ",
". . * * + + G.H.I.J.K.L.M.7.N.O.P.q Q.R.S.s.T.U.V.W.X.Y.Z.).`. +.++++ + + . . + ",
"& . + + . + @+#+$+%+&+*+=+-+;+>+,+'+)+!+~+{+]+^+/+(+_+:+<+[+}+|+1+2++ + . . . & ",
"& . + * + 3+4+5+6+7+8+9+0+a+b+c+d+e+f+g+h+i+j+)+k+k+l+m+n+o+p+q+r+s+t+u++ . . . ",
"& + + v+w+x+y+z+w.p.A+B+C+R.D+R.R.S.S.E+F+ +G+H+k+R.>+I+9+J+q.K+L+M+N+O++ + + * ",
"& . + P+Q+R+S+T+U+V+V+W+X+Y+Z+`+ @.@9++@@@#@$@%@R.q &@*@=@-@W+;@>@,@'@)@* + * * ",
". + + !@~@{@]@^@~.V+/@(@_@:@<@[@ @.@}@).).).d.|@S.1@2@ @'.Z+W+O 3@4@5@6@@ . . . ",
". . * 7@8@9@_+0@~.V+Y.a@b@c@d@e@s..@f@g@~.h@i@j@k@l@m@n@o@Z+g@p@q@r@s@t@u@. . + ",
". + + v@w@x@y@z@~.V+W+A@B@c@C@D@E@F@G@H@I@I+J@K@ @L@M@N@n.O@'.P@Q@R@S@T@U@+ + @ ",
". + + 7@V@W@X@Y@W+V+W+o.o.o@Z@`@ #D+.#+#@###$#%#&#*#=#-#;#c@V+W+>#,#'#)#!#+ + * ",
"+ + + 7@~#{#]#~.W+V+V+V+~.c.^#/#(#_#:#<#[#}#|#1#R.k+2#3#M.(@X+V+4#Y.5#)#U@+ + . ",
"+ + . 7@6#7#8#9#0#W+~.V+V+b@a#&#k+b#c#d#e#e#f#g#w.h#i#Q..@g@p.X+~.;#j#)#U@* . $ ",
"+ + + k#l#m#n#o#p#%.q#r#~.:@s#P.t.t#u#v#w#x#_@y#h@z#A#R.B#v#C#q#D#E#F#G#H#* + & ",
"+ + + I#J#K#I+M.L#W+3.M#N#a@O#[@ @P#%@Q#V+o.Z.b@R#j@/+S#T#U#V#z@D#W#X#Y#Z#* @ + ",
"+ . & `# $.$+$@$#$r#$$%$a.O@w#[@ @G@&$*$=$=$d.-$i#;$>$,$'$)$!$~${$]$^$/$($& & & ",
"* + + + + _$:$<$[$^#3.}$|$7.7.&#R.F@1$1$|@W#2$3$4$5$6$-+7$8$9$0$a$b$c$d$+ . + + ",
"* * * * + e$f$g$h$r#i$9+j$k$l$m$n$o$t.t.p$q$r$s$t$l.u$v$w$x$y$d.q z$A$B$. + + + ",
". + * + . C$D$E$F$}@G$B+H$I$6$I$J$K$L$S#M$N$O$P$Q$T.R$9+a@C#S$T$U$V$+ . & & . . ",
"& + + . . & W$X$Y$Z$`$ %.%+%9.R.,+@%#%$%R.8.%%F@&%*%=%-%>#x#;%>%,%'%. + . & . + ",
"* * + . & & . )%!%~%w.{%]%^%/%(%P.,$_%:%#%<%e.[%}%|%1%2%Y.^@3%4%5%& . . . + + * ",
"@ + . . . . . 6%7%8.8%-#9%K.[$0%a%b%c%d%e%X f%X+p.g%W+=$E#h%i%j%k%& . + + + + * ",
"* + . & + * * l%m%n% +o%p%q%r%/@s%t%u%v%w%x%v#y%}@z%A%F@B%C%D%E%F%. + + + . . . ",
". . . . + + + * G%H%I%J%K%L%)$M%N%=#O%P%P@Q%R%:+S%T%U%V%W%X%Y%Z%* * * + & $ & . ",
". + + + * + * * + * `% &.&+&@&#&$&%&&&*&=&-&-&g#;&>&,&'&)&!&~&+ . + + . . . * @ ",
"+ + + + + + + + + + * @ {&]&^&/&(&_&:&<&[&8.:&8.}&|&1&2&+ . . + + * * + . . + * ",
". . . . . & . & . & & . + + 3&4&5&6&7&8&8&9&0&a&b&c&. . + . + + + + + . . & . . ",
". . + . . & & . . $ $ $ & . . F%G%d&e&e&e&f&f&d&g&+ + + . + + . & & & & + + * * ",
"+ * + + + . . + * + & & & + * * . . & & & + * . + * + + . + + . + . . + * * * * ",
"* + + + + + + + * * + + + + @ @ & + + . + @ + & + @ * . . + + & @ * + + * + . & ",
"+ + + + + . + . . * @ * + . + * $ . * * * @ + h&+ @ @ . . + + & & & & . + * + . "};
