/* XPM */
static char * C:\Users\Asus\Desktop\Maxou\pipe_xpm[] = {
"40 40 158 2",
"  	c None",
". 	c #D1C5C9",
"+ 	c #CDC1C5",
"@ 	c #C4B8BC",
"# 	c #C2B6BA",
"$ 	c #D9CDD1",
"% 	c #E5D9DD",
"& 	c #D5C9CD",
"* 	c #CABEC2",
"= 	c #000600",
"- 	c #0C240A",
"; 	c #0C270B",
"> 	c #092A06",
", 	c #3BD430",
"' 	c #40E535",
") 	c #3FE233",
"! 	c #3FE234",
"~ 	c #41E535",
"{ 	c #40E334",
"] 	c #3DD832",
"^ 	c #0A3007",
"/ 	c #011B00",
"( 	c #168E0F",
"_ 	c #189810",
": 	c #199911",
"< 	c #189710",
"[ 	c #2EC623",
"} 	c #48FF3B",
"| 	c #28BA1E",
"1 	c #16930F",
"2 	c #189210",
"3 	c #011F00",
"4 	c #042102",
"5 	c #23AA1B",
"6 	c #26B61D",
"7 	c #1C9F13",
"8 	c #056F00",
"9 	c #046B00",
"0 	c #22AC19",
"a 	c #46FB39",
"b 	c #0E8107",
"c 	c #27B71D",
"d 	c #138C0C",
"e 	c #22AD19",
"f 	c #087502",
"g 	c #1CA014",
"h 	c #001500",
"i 	c #0B3008",
"j 	c #45F238",
"k 	c #4AFF3D",
"l 	c #34D329",
"m 	c #077201",
"n 	c #47FD3A",
"o 	c #087002",
"p 	c #076F01",
"q 	c #1B9E13",
"r 	c #34D429",
"s 	c #3BE330",
"t 	c #35D72A",
"u 	c #076E01",
"v 	c #40EE34",
"w 	c #2BC221",
"x 	c #097603",
"y 	c #148E0C",
"z 	c #3AE02E",
"A 	c #25B31C",
"B 	c #45F438",
"C 	c #666466",
"D 	c #2CC222",
"E 	c #1DA215",
"F 	c #38DD2D",
"G 	c #3EE932",
"H 	c #48FE3B",
"I 	c #44F038",
"J 	c #0F8408",
"K 	c #20A817",
"L 	c #30CC25",
"M 	c #26B51C",
"N 	c #24B21B",
"O 	c #12890A",
"P 	c #2ABF20",
"Q 	c #37DA2C",
"R 	c #35D82A",
"S 	c #23B01A",
"T 	c #031102",
"U 	c #1FA616",
"V 	c #2FC925",
"W 	c #3ACD2F",
"X 	c #3FDC33",
"Y 	c #2CB423",
"Z 	c #056000",
"` 	c #065E01",
" .	c #1D9416",
"..	c #178610",
"+.	c #15830E",
"@.	c #26A61D",
"#.	c #045E00",
"$.	c #1D9315",
"%.	c #37CD2D",
"&.	c #0D7007",
"*.	c #23A01B",
"=.	c #2DB724",
"-.	c #061805",
";.	c #051504",
">.	c #010B00",
",.	c #010D01",
"'.	c #041303",
").	c #071906",
"!.	c #6A6A6A",
"~.	c #070607",
"{.	c #000000",
"].	c #050405",
"^.	c #898989",
"/.	c #272527",
"(.	c #092507",
"_.	c #237D1C",
":.	c #24801E",
"<.	c #166111",
"[.	c #033800",
"}.	c #0A4807",
"|.	c #033700",
"1.	c #023500",
"2.	c #0C4D08",
"3.	c #094606",
"4.	c #10530B",
"5.	c #12590E",
"6.	c #242324",
"7.	c #7F7F7F",
"8.	c #DEDEDE",
"9.	c #124C0E",
"0.	c #128B0A",
"a.	c #002200",
"b.	c #484648",
"c.	c #124A0E",
"d.	c #44F637",
"e.	c #2CC522",
"f.	c #33CE29",
"g.	c #0C7D06",
"h.	c #2DC523",
"i.	c #3BE430",
"j.	c #1FA717",
"k.	c #0E8207",
"l.	c #38DC2D",
"m.	c #29BD20",
"n.	c #32CF27",
"o.	c #44F738",
"p.	c #2EC424",
"q.	c #21AA18",
"r.	c #25B41C",
"s.	c #2ABF21",
"t.	c #46F83A",
"u.	c #11870A",
"v.	c #47FB3A",
"w.	c #0B7A04",
"x.	c #3CE630",
"y.	c #35D32B",
"z.	c #002400",
"A.	c #DCD0D4",
". . + @ # @ $ % & . * * * + + * & . + * * + . . + . & . + * @ * * + . . + + + . ",
"@ * . & + + . & . . * + + . + * . + + + + + . . . . . . * * * @ + + . . . + . . ",
"# + = - ; - - ; - - - + + . + * - - - ; - ; - - ; + . + @ # @ @ + . . . - = + + ",
"+ + > , ' ) ) ! ' ~ ' ' ~ ' ' { ) { { { ) ) { { ) ) ) ) ) ) ) ) ) ) ) ) ] ^ + + ",
"& . / ( _ _ : < [ } } } } } | < : 1 < : : : : : : < : < < : : : 1 : _ _ 2 3 + @ ",
"+ + 4 5 6 7 8 9 0 } } } } a 7 b 6 c < 8 8 8 8 8 8 8 8 8 d e f 1 6 6 6 g 9 h * * ",
"* * i j k l m 8 0 } } } } } 7 _ n k [ 8 8 8 o 8 8 p 8 8 q r q | s k k t u h . + ",
". + i v k l m 8 0 } } } } a 7 : n k w 8 8 p m 8 o 8 m 8 x y z A : B k t u h C . ",
". + i j n l m 9 e } } } } n q : } k D p 8 8 8 8 m 8 o 8 E F 1 | G H k t 8 h C . ",
"+ * i I k l m 8 e } } } } n _ _ a } D 8 m m o m m 8 8 p J K L M N a H t 8 h C * ",
"* * i I k l m 8 e } } } } n 7 : a k D 8 8 8 8 8 8 m 8 8 O 0 P 6 c a k r u h C @ ",
". . i I k l m 9 e } } } } n q : } } D 8 m o m o 8 o 8 8 E Q < | G n k R u h C + ",
"& . i j k l m 8 e } } } } n q _ a k D 8 m 8 8 8 m 8 8 8 x d z A < B k r 8 h C & ",
"& . + I k l m 9 e } } } } n q : a k D p 8 8 m 8 8 8 m 8 7 Q : | G n k r p h C . ",
"& + + j H l m 8 e } } } } n q : a } D m 8 m 8 8 8 o 8 8 O S w 6 | a k R p T C * ",
"& . i j k r m 8 e k k } k n q : } k [ 8 8 m m m m m m m J U V 6 N a k r m h C * ",
". + > W X Y Z `  .X ] X ] ] ..+.] X @.` Z Z Z Z Z Z Z #.$.%.&.*.X ] X =.Z T C . ",
". . * -.-.;.>.,.'.).).).).-.T ,.).).'.>.>.>.>.>.>.>.>.>.T -.,.T ).-.-.;.>.= !.+ ",
". + + ~.{.{.{.{.{.{.{.{.{.{.{.{.{.{.{.{.{.{.{.{.{.{.{.{.{.{.{.{.{.{.{.{.].^.+ @ ",
". + + + /.(._.:.<.[.[.<.:.:.:.:._.}.|.[.[.[.[.[.1.2._.3.4.:.:.5.[.[.T 6.7.8.+ * ",
"+ + + + + 9.k k [ m 8 w k k } k a 1 8 m m m m m 0.e R U [ k k M 8 p a.b.* + + . ",
"+ + . + . c.a k w 8 8 P k n n } d.y 8 8 m 8 8 o e.f.O r d.n k S 8 8 a.b.* * . $ ",
"+ + + . . c.a k D 8 8 P k n } } a y 8 m 8 8 8 8 g.U z : c H n N 8 p a.b.+ * + & ",
"+ + + + . c.a k D 8 8 P k } } } d.y 8 o 8 m m m S w U h.i.n k N 8 8 a.b.. * @ + ",
"+ . & . * c.a k D p 8 P k k } } a y 8 o 8 8 8 m j.P e P Q H k S 8 p a.b.+ & & & ",
"* + + + + c.a k D 8 8 P k n } } B y 8 8 m m 8 m k.j.l.q m.H k N 8 8 a.b.+ . + + ",
"* * * * + c.a k D 8 8 P k } } } a y 8 p 8 8 8 o h.n.O r o.H k S 9 p a.b.. + + + ",
". + * + . c.a k p.8 8 P } n } } a y 8 8 8 m 8 m k.q.l.q m.n k S 8 p a.b.& & . . ",
"& + + . . c.a k D p 8 P k } } } B y 8 p 8 m 8 m q.P e P l.H k S 8 8 a.b.. & . + ",
"* * + . & c.a k D 8 8 P } } } } a y 8 m 8 m 8 o e D E w i.n k r.8 p a.b.. + + * ",
"@ + . . . c.a k D p 8 s.k } } } t.y 8 8 8 8 m 8 g.U z q c H n N 8 8 a.b.+ + + * ",
"* + . & + c.a k D p 8 s.} } } } B y 8 8 m 8 8 m [ f.O r o.n k N 8 o a.b.+ . . . ",
". . . . + c.a k w 8 8 s.k } } } B 1 8 8 8 o 8 8 u.K r U D } k N 8 8 a.b.& $ & . ",
". + + + * c.v.k D 8 8 s.k } } } d.1 8 8 8 m 8 m E | c c r } } N 8 8 a.b.. . * @ ",
"+ + + + + c.a k D 8 8 s.k } } } a y 8 8 8 8 o m c h.: L G n k S 8 p a.b.. . + * ",
". . . . . c.a k D 8 8 s.} } } } B y 8 m m 8 m 8 w.E x.< 6 n k S 8 8 a.b.. & . . ",
". . + . . & & . . o o $ & k k k a 2 p o o o o o h.f.y y.j k k Y p p z.b.+ + * * ",
"+ * + + + . . + * + & & & + * * . . & & & + * . + * + + . + + . + . . + * * * * ",
"* + + + + + + + * * + + + + @ @ & + + . + @ + & + @ * . . + + & @ * + + * + . & ",
"+ + + + + . + . . * @ * + . + * $ . * * * @ + A.+ @ @ . . + + & & & & . + * + . "};
