/* XPM */
static char *d0722dcefb96419cd94eedbeeef2deb1MFDKVrgwVoqjS9yR[] = {
/* columns rows colors chars-per-pixel */
"40 40 31 1 ",
"  c #BFB3B7",
". c #C0B4B8",
"X c #C2B6BA",
"o c #C3B7BB",
"O c #C4B8BC",
"+ c #C5B9BD",
"@ c #C6BABE",
"# c #C7BBBF",
"$ c #C8BCC0",
"% c #C9BDC1",
"& c #CABEC2",
"* c #CBBFC3",
"= c #CCC0C4",
"- c #CDC1C5",
"; c #CEC2C6",
": c #CFC3C7",
"> c #D0C4C8",
", c #D1C5C9",
"< c #D2C6CA",
"1 c #D3C7CB",
"2 c #D4C8CC",
"3 c #D5C9CD",
"4 c #D6CACE",
"5 c #D7CBCF",
"6 c #D8CCD0",
"7 c #D9CDD1",
"8 c #DACED2",
"9 c #DBCFD3",
"0 c #DCD0D4",
"q c #DED2D6",
"w c #E5D9DD",
/* pixels */
",,-OXO7w3,&&&--&3,-&&-,,-,3,-&O&&-,,---,",
"O&,3--,3,,&--,-&,-----,,,,,,&&&O--,,,-,,",
"X-33,,-&-----,-&----,-,,,-,-OXOO-,,,,---",
"--,,---,--,,,,-&&&-,,,,-,,--&&&,-,,,----",
"3,,-&&,,&-,,,,,-O&-,,3,,3,3,,,37-------O",
"---,,,-&--,,--,,&--,,,-,--,----3-&-&--&&",
"&&,,,,-&-,,,--,3--,,--,-O&-&&OO&,---,3,-",
",----,,,--,,--,3,----,---,3,-&O&,,--37,,",
",-,,33,,,,3,-&,3---,,,,--&-O&&-3,,,,,,,,",
"-&&&-,-&&--&&--,&----,-,----&&-,733,--&&",
"&&&&-&&O-OXOO--,&--,,,,,--,,--,,33,,-&OO",
",,&&-----&OO&,,-&&--,,,,&&,,,,,3-----,,-",
"3,--,---3,&&-,,,&----,,,&--,----&&--,,,3",
"3,-&-,,,3,-,,,,-&--,,,,-,33,-&O&-,-,-,,,",
"3--&-,,,&-,,,---,-,-,--&333--&---,-----&",
"3,--,,33XO--&&--,,,,----,,,--,37----&-&&",
",--&--,33-&&&-------&OOO&OOO&-37,3,&O,,,",
",,&-&-,33,&-----,,,------&&OO&--O--O&,,-",
",--&--,,,,--,,-----,-,,,---&&OO&&&-&&--O",
",----,-,,,,-3,,--&--,,,,-&&---&-,3,,---&",
"------,,-,-,3,,----,-,,,---,--,-3,-&&--,",
"--,-,-,,,---,,,-3,,,,,,,33,,,--,&&X&&&,7",
"---,,,-,,-&&-,,-,,,,,,,,3,----,3-OO--&-3",
"----,-,-,-O&&,,,&&&---,--&&O-,703,,3,&O-",
"-,3,&&-33,,,--,,,--&&OOO-&OO&--&3-&&-333",
"&----,,,,,---,,,--------,-&&----3,---,--",
"&&&&-,,,-,,-,,33---,,,333,--,,,,3,-,,---",
",-&-,,-&-,---,,,---,,3333,,--,,,,--,33,,",
"3--,,3-&,,,,,------,,,,,-,---,,3--,-,3,-",
"&&-,33,,,,,3,,--------,-------3373,,,--&",
"O-,,,,,,-,,,,,,---,-,,,,O----,3773,----&",
"&-,3-&&---,,3,,----,,,,3O&---,703,---,,,",
",,,,---&,,-,7073O-,--33--,3--33-&&&-373,",
",---&-&&-&&O&--,&,,-&,3,-,,--,,-,--,,,&O",
"----------&OOO--,,,,&,,3,,,--,,--&&-,,-&",
",,,,,3,3,33,--,3,33,,-,,--,,-,-----,,3,,",
",,-,,33,,7773,,3,,333--,,---,--,3333--&&",
"-&---,,-&-333-&&,,333-&,-&--,--,-,,-&&&&",
"&-------&&----OO3--,-O-3-O&,,--3O&--&-,3",
"-----,-,,&O&-,-&7,&&&O-0-OO,,--3333,-&-,"
};
