/* XPM */
static char * C:\Users\Asus\Desktop\mario_up_xpm[] = {
"40 40 338 2",
"  	c None",
". 	c #D1C5C9",
"+ 	c #CDC1C5",
"@ 	c #C4B8BC",
"# 	c #C2B6BA",
"$ 	c #D9CDD1",
"% 	c #E5D9DD",
"& 	c #D5C9CD",
"* 	c #CABEC2",
"= 	c #C2B4B2",
"- 	c #9D847C",
"; 	c #8E7A7D",
"> 	c #907D7F",
", 	c #8C787B",
"' 	c #BFB1B5",
") 	c #AFA0A4",
"! 	c #9D8F92",
"~ 	c #977576",
"{ 	c #923836",
"] 	c #7A132C",
"^ 	c #79112B",
"/ 	c #7A122C",
"( 	c #92767A",
"_ 	c #A09194",
": 	c #B4A6AA",
"< 	c #BAADB1",
"[ 	c #81595D",
"} 	c #760F1E",
"| 	c #9D1D3B",
"1 	c #CA2F69",
"2 	c #CA3168",
"3 	c #CB316A",
"4 	c #9D1E3B",
"5 	c #845D61",
"6 	c #CBBFC3",
"7 	c #BDAFB2",
"8 	c #784F52",
"9 	c #9D2048",
"0 	c #E0386D",
"a 	c #FB4171",
"b 	c #F94070",
"c 	c #764D50",
"d 	c #C0B2B6",
"e 	c #C2B5B9",
"f 	c #6A4445",
"g 	c #9B1F4C",
"h 	c #E0386B",
"i 	c #F84070",
"j 	c #BFB3B6",
"k 	c #C2B5B8",
"l 	c #623537",
"m 	c #9E214F",
"n 	c #E4396D",
"o 	c #64383A",
"p 	c #C5B8BC",
"q 	c #633638",
"r 	c #9E214E",
"s 	c #E3396D",
"t 	c #FA4171",
"u 	c #633739",
"v 	c #BAADB0",
"w 	c #C1B5B9",
"x 	c #663739",
"y 	c #A12251",
"z 	c #E63A6F",
"A 	c #FC4171",
"B 	c #C1B3B5",
"C 	c #9F8C8A",
"D 	c #44292A",
"E 	c #77132D",
"F 	c #C32D5D",
"G 	c #EF3D70",
"H 	c #FA4170",
"I 	c #452A2B",
"J 	c #A89694",
"K 	c #C9BCBE",
"L 	c #BFB2B5",
"M 	c #B49B90",
"N 	c #8E693C",
"O 	c #0D0805",
"P 	c #3F0000",
"Q 	c #7F122E",
"R 	c #E93B6F",
"S 	c #E73A6D",
"T 	c #BBA49A",
"U 	c #CCBEC1",
"V 	c #B09C98",
"W 	c #A97743",
"X 	c #D6A89B",
"Y 	c #140D0C",
"Z 	c #370000",
"` 	c #440000",
" .	c #77122C",
"..	c #A72456",
"+.	c #A42353",
"@.	c #B29E9B",
"#.	c #B3A19D",
"$.	c #A96334",
"%.	c #D2665C",
"&.	c #110807",
"*.	c #030000",
"=.	c #2E0103",
"-.	c #560307",
";.	c #530307",
">.	c #A96333",
",.	c #B19F9B",
"'.	c #CEC2C5",
").	c #BEA6A1",
"!.	c #864F20",
"~.	c #0A0602",
"{.	c #000000",
"].	c #070000",
"^.	c #0E0000",
"/.	c #0D0000",
"(.	c #BBA39E",
"_.	c #C7BBBE",
":.	c #CABDC0",
"<.	c #AE9D9A",
"[.	c #664725",
"}.	c #A08474",
"|.	c #332B29",
"1.	c #674826",
"2.	c #B09F9C",
"3.	c #C9BCC0",
"4.	c #B9A29A",
"5.	c #C29873",
"6.	c #A08270",
"7.	c #393231",
"8.	c #C19772",
"9.	c #B39B93",
"0.	c #C3B6BA",
"a.	c #CCC0C3",
"b.	c #BAA8A4",
"c.	c #8C684A",
"d.	c #BD9463",
"e.	c #9E6C59",
"f.	c #391613",
"g.	c #8C6848",
"h.	c #B8A6A2",
"i.	c #C3B7BA",
"j.	c #CBBFC2",
"k.	c #BCAAA9",
"l.	c #804E2E",
"m.	c #995027",
"n.	c #9F5127",
"o.	c #BE5E51",
"p.	c #854355",
"q.	c #0E091B",
"r.	c #370D18",
"s.	c #BE5D51",
"t.	c #9E5127",
"u.	c #804E2D",
"v.	c #B7A5A3",
"w.	c #C8BCBF",
"x.	c #D0C4C8",
"y.	c #B9A7A5",
"z.	c #804C28",
"A.	c #6B1011",
"B.	c #DC365D",
"C.	c #FA406E",
"D.	c #863C7B",
"E.	c #1A388A",
"F.	c #4C3A82",
"G.	c #DC4472",
"H.	c #1A3889",
"I.	c #893D7C",
"J.	c #FF426F",
"K.	c #804B27",
"L.	c #CCC0C4",
"M.	c #B8A5A1",
"N.	c #7D4E32",
"O.	c #691010",
"P.	c #DE365F",
"Q.	c #F63F6F",
"R.	c #D02F65",
"S.	c #74527D",
"T.	c #387B99",
"U.	c #437B97",
"V.	c #547C95",
"W.	c #367B98",
"X.	c #945D84",
"Y.	c #FD3E6F",
"Z.	c #F53F6F",
"`.	c #7D4E31",
" +	c #B5A09A",
".+	c #774010",
"++	c #67080F",
"@+	c #ED3C69",
"#+	c #CC3167",
"$+	c #B8255E",
"%+	c #73527B",
"&+	c #4E9CA7",
"*+	c #73C8BF",
"=+	c #72C9BF",
"-+	c #4D9CA7",
";+	c #7B557D",
">+	c #C42961",
",+	c #66070F",
"'+	c #C4B6B6",
")+	c #9E8787",
"!+	c #61070D",
"~+	c #C52D5D",
"{+	c #B9265F",
"]+	c #7E4875",
"^+	c #648D9E",
"/+	c #74CBC0",
"(+	c #74C2C0",
"_+	c #436C9F",
":+	c #638D9E",
"<+	c #7C4774",
"[+	c #C8315E",
"}+	c #80381B",
"|+	c #A68F8A",
"1+	c #C6B8B9",
"2+	c #947F83",
"3+	c #6E3972",
"4+	c #784A79",
"5+	c #6591A0",
"6+	c #71CBC1",
"7+	c #86E1CD",
"8+	c #76C6C1",
"9+	c #4B7CA5",
"0+	c #703B73",
"a+	c #A28882",
"b+	c #C8BABB",
"c+	c #DCD0D4",
"d+	c #C3B8C3",
"e+	c #424B8F",
"f+	c #367397",
"g+	c #5EADB0",
"h+	c #6DBEBA",
"i+	c #6ABAB8",
"j+	c #71C4BD",
"k+	c #83DDCA",
"l+	c #3F498E",
"m+	c #BAAFBA",
"n+	c #C1B6BE",
"o+	c #454C8F",
"p+	c #3A7195",
"q+	c #488C9E",
"r+	c #4B90A1",
"s+	c #45879C",
"t+	c #4D92A2",
"u+	c #7FD6C7",
"v+	c #434A8E",
"w+	c #BEB3BB",
"x+	c #C4B9C2",
"y+	c #6BBBB8",
"z+	c #81DAC9",
"A+	c #65B3B4",
"B+	c #424A8E",
"C+	c #464D8F",
"D+	c #3A7095",
"E+	c #6CBEB9",
"F+	c #84DECB",
"G+	c #67B5B5",
"H+	c #4D91A1",
"I+	c #7ED6C7",
"J+	c #CEC2C7",
"K+	c #B2A8B7",
"L+	c #576095",
"M+	c #447D9D",
"N+	c #539BA6",
"O+	c #4A8EA0",
"P+	c #43849A",
"Q+	c #56A0A9",
"R+	c #7CD4C5",
"S+	c #4F95A3",
"T+	c #498C9F",
"U+	c #586195",
"V+	c #CABEC3",
"W+	c #CFC3C8",
"X+	c #5A5A92",
"Y+	c #346492",
"Z+	c #408398",
"`+	c #418398",
" @	c #3C7796",
".@	c #2F5490",
"+@	c #4573A0",
"@@	c #43819B",
"#@	c #408297",
"$@	c #CBBFC4",
"%@	c #A19AB2",
"&@	c #5A6B9B",
"*@	c #305E95",
"=@	c #2C5393",
"-@	c #202F8C",
";@	c #1E2D8A",
">@	c #2B5292",
",@	c #305F95",
"'@	c #57689A",
")@	c #9E96AF",
"!@	c #BEB3B7",
"~@	c #726C80",
"{@	c #3B396B",
"]@	c #3C396A",
"^@	c #333469",
"/@	c #182464",
"(@	c #6E677C",
"_@	c #B8ADB1",
":@	c #D7CCD0",
"<@	c #CBC0C4",
"[@	c #5E5758",
"}@	c #623F12",
"|@	c #8C5B19",
"1@	c #6A4513",
"2@	c #030201",
"3@	c #5A5455",
"4@	c #C5B9BD",
"5@	c #504B4C",
"6@	c #654216",
"7@	c #825417",
"8@	c #855618",
"9@	c #68441A",
"0@	c #2E2A2B",
"a@	c #2D2A2A",
"b@	c #654217",
"c@	c #524D4E",
"d@	c #C1B6BA",
"e@	c #B7ACB0",
"f@	c #312D2E",
"g@	c #140D04",
"h@	c #181004",
"i@	c #180F04",
"j@	c #60595A",
"k@	c #B8ADB0",
"l@	c #353132",
"m@	c #C0B5B8",
"n@	c #C9BDC1",
"o@	c #AFA5A8",
"p@	c #B0A6A9",
"q@	c #B4AAAD",
"r@	c #B1A6AA",
"s@	c #B3A9AC",
"t@	c #BDB2B5",
"u@	c #B5ABAE",
"v@	c #ADA3A6",
"w@	c #B3A8AC",
". . + @ # @ $ % & . * * * + + * & . + * * + . . + . & . + * @ * * + . . + + + . ",
"@ * . & + + . & . . * + + . + * . + + + + + . . . . . . * * * @ + + . . . + . . ",
"# + & & . . + * + + + + + . + * + = - ; > , ' . . + . + @ # @ @ + . . . . + + + ",
"+ + . . + + + . + + . . . . + ) ! ~ { ] ^ / ( _ : . + + * * * . + . . . + + + + ",
"& . . + * * . . * + . . . . < [ } | 1 2 2 3 4 } 5 < & . . . & $ + + + + + + + @ ",
"+ + + . . . + * + + . . 6 7 8 9 0 a b b b b a 0 9 c d 6 + + + & + * + * + + * * ",
"* * . . . . + * + . . . e f g h b i i i i i i b h g f j * @ @ * . + + + . & . + ",
". + + + + . . . + + . . k l m n a i i i i i i a n m o p + * @ * . . + + & $ . . ",
". + . . & & . . . . & . e q r s t i i i i i i t s r u v * * + & . . . . . . . . ",
"+ * * * + . + * * + + * w x y z A i i i i i i A z y x @ * * + . $ & & . + + * * ",
"* * * * + * * @ + @ # B C D E F G a H H H H a G F E I J K + . . & & . . + * @ @ ",
". . * * + + + + + * L M N O P Q F R S S S S R F Q P O N T U . & + + + + + . . + ",
"& . + + . + + + & . V W X Y Z `  ...+.+.+.+... .` Z Y X W @.+ + * * + + . . . & ",
"& . + * + . . . & . #.$.%.&.*.*.=.-.;.;.;.;.-.=.*.*.&.%.>.,.@ * + . + . + . . . ",
"& + + * + . . . * + '.).!.~.{.{.].^././././.^.].{.{.~.!.(._.+ + + . + + + + + * ",
"& . + + . . & & # @ + :.<.[.}.|.{.{.{.{.{.{.{.{.|.}.1.2.:.. & $ + + + + * + * * ",
". + + * + + . & & + * * 3.4.5.6.7.{.{.{.{.{.{.7.6.8.9.0.* + & $ . & . * @ . . . ",
". . * + * + . & & . * + a.b.c.d.e.f.{.{.{.{.f.e.d.g.h.i.@ * + + @ + + @ * . . + ",
". + + * + + . . . . + j.k.l.m.n.o.p.q.r.r.q.p.s.t.m.u.v.w.@ @ * * * + * * + + @ ",
". + + + + . + . . . x.y.z.A.B.C.D.E.F.G.G.F.H.I.J.B.A.K.y.L.* + . & . . + + + * ",
"+ + + + + + . . + . M.N.O.P.Q.R.S.T.U.V.V.U.W.X.Y.Z.P.O.`.M.. + & . + * * + + . ",
"+ + . + . + . . . +  +.+++@+#+$+%+&+*+=+=+*+-+;+>+#+@+,+.+ ++ . * * # * * * . $ ",
"+ + + . . . + . . + '+)+!+~+{+]+^+/+(+_+_+(+/+:+<+{+[+}+|+1+. & + @ @ + + * + & ",
"+ + + + . + . + . + @ w 2+3+4+5+6+7+8+9+9+8+7+6+5+4+0+a+b+. $ c+& . . & . * @ + ",
"+ . & . * * + & & . . . d+e+f+g+h+i+j+k+k+j+i+h+g+f+l+m+* + + * & + * * + & & & ",
"* + + + + . . . . . + + n+o+p+q+r+s+t+u+u+t+s+r+q+p+v+w++ + + + & . + + + . + + ",
"* * * * + . . . + . . + x+v+p+y+z+A+t+u+u+t+A+z+y+p+B+n+. . . . & . + . . + + + ",
". + * + . . + * + . + + n+C+D+E+F+G+H+I+u+t+G+F+E+D+C+n++ . . . . + + . & & . . ",
"& + + . . & + * . . . . J+K+L+M+N+O+P+Q+R+S+T+N+M+U+K+V++ . . & + + . + . & . + ",
"* * + . & & . . . . . & . W+X+Y+Z+`+ @.@+@@@#@Z+Y+X+$@+ + + & & $ & . . . + + * ",
"@ + . . . . . . + . . . . W+%@&@*@*@=@-@;@>@,@*@'@)@$@+ + . & $ $ & . + + + + * ",
"* + . & + * * + + + . . & . !@~@{@]@^@/@/@^@]@{@(@_@+ + + . $ c+& . + + + . . . ",
". . . . + + + * . . + . :@<@[@}@|@|@1@2@2@1@|@|@}@3@4@L.+ & & + * * * + & $ & . ",
". + + + * + * * + * * @ !@5@6@7@7@8@9@0@a@9@8@7@7@b@c@d@+ . . + . + + . . . * @ ",
"+ + + + + + + + + + * @ e@f@g@h@i@i@j@!@k@j@i@i@h@g@l@m@+ . . + + * * + . . + * ",
". . . . . & . & . & & . n@o@p@q@r@s@t@. . u@p@r@v@v@w@+ + . + + + + + . . & . . ",
". . + . . & & . . $ $ $ & . . & . . & & & + + . . + + + . + + . & & & & + + * * ",
"+ * + + + . . + * + & & & + * * . . & & & + * . + * + + . + + . + . . + * * * * ",
"* + + + + + + + * * + + + + @ @ & + + . + @ + & + @ * . . + + & @ * + + * + . & ",
"+ + + + + . + . . * @ * + . + * $ . * * * @ + c++ @ @ . . + + & & & & . + * + . "};
