/* XPM */
static char * C:\Users\Asus\Desktop\Maxou\mario fini_xpm[] = {
"40 40 192 2",
"  	c None",
". 	c #D1C5C9",
"+ 	c #CDC1C5",
"@ 	c #C4B8BC",
"# 	c #C2B6BA",
"$ 	c #D9CDD1",
"% 	c #E5D9DD",
"& 	c #D5C9CD",
"* 	c #CABEC2",
"= 	c #75061A",
"- 	c #801C1B",
"; 	c #7A3310",
"> 	c #835720",
", 	c #A64D32",
"' 	c #5F0610",
") 	c #640811",
"! 	c #B12A4E",
"~ 	c #F27765",
"{ 	c #E6C166",
"] 	c #FAD286",
"^ 	c #F35F69",
"/ 	c #8C1926",
"( 	c #5C050D",
"_ 	c #A3244E",
": 	c #D33266",
"< 	c #D36748",
"[ 	c #D4B272",
"} 	c #EAE4DC",
"| 	c #E4DDD4",
"1 	c #CE9749",
"2 	c #DC4B58",
"3 	c #C62D63",
"4 	c #861737",
"5 	c #510102",
"6 	c #E3396A",
"7 	c #6B192E",
"8 	c #23140A",
"9 	c #1E1B15",
"0 	c #272423",
"a 	c #21201F",
"b 	c #180E06",
"c 	c #501328",
"d 	c #110204",
"e 	c #000000",
"f 	c #1F100F",
"g 	c #801F44",
"h 	c #981D45",
"i 	c #4F0000",
"j 	c #0D0907",
"k 	c #030409",
"l 	c #48141B",
"m 	c #4F4844",
"n 	c #727272",
"o 	c #6D5B57",
"p 	c #692F2C",
"q 	c #6E6B6B",
"r 	c #31070A",
"s 	c #381918",
"t 	c #382B28",
"u 	c #D6C3AC",
"v 	c #E7E7E5",
"w 	c #D3ACA4",
"x 	c #F88D84",
"y 	c #FD9288",
"z 	c #C3BCBB",
"A 	c #F9F5F3",
"B 	c #957E75",
"C 	c #460303",
"D 	c #A75047",
"E 	c #E97268",
"F 	c #F7C7B8",
"G 	c #FFEFEA",
"H 	c #6D7071",
"I 	c #52433E",
"J 	c #FDD5C5",
"K 	c #E0BCAD",
"L 	c #BFC1C1",
"M 	c #FFA79B",
"N 	c #261210",
"O 	c #DE6859",
"P 	c #FF726D",
"Q 	c #CC664A",
"R 	c #714B1D",
"S 	c #211B19",
"T 	c #D9B9A9",
"U 	c #A6C7B1",
"V 	c #FFE6DB",
"W 	c #9C8279",
"X 	c #905721",
"Y 	c #E96C5E",
"Z 	c #5B3C0E",
"` 	c #FF968B",
" .	c #E1988E",
"..	c #FFBCAF",
"+.	c #151212",
"@.	c #865617",
"#.	c #EB705B",
"$.	c #5F5049",
"%.	c #43312D",
"&.	c #AF5E56",
"*.	c #783733",
"=.	c #7B6861",
"-.	c #AC513F",
";.	c #704D2A",
">.	c #EBC5B5",
",.	c #74322E",
"'.	c #120B09",
").	c #CAAC93",
"!.	c #563616",
"~.	c #976D35",
"{.	c #C69A74",
"].	c #735F56",
"^.	c #997C6A",
"/.	c #8B5B1B",
"(.	c #D5A987",
"_.	c #704E45",
":.	c #381514",
"<.	c #291A06",
"[.	c #B2936B",
"}.	c #BC8F60",
"|.	c #814E0A",
"1.	c #94692F",
"2.	c #E76B5E",
"3.	c #AC6134",
"4.	c #F1EEEA",
"5.	c #D2CCC4",
"6.	c #99692B",
"7.	c #935B22",
"8.	c #91472D",
"9.	c #93662B",
"0.	c #8F6226",
"a.	c #A88557",
"b.	c #B89C77",
"c.	c #FDFEFE",
"d.	c #A6814F",
"e.	c #626350",
"f.	c #6C5E6F",
"g.	c #AB3150",
"h.	c #576E74",
"i.	c #775529",
"j.	c #B5A78B",
"k.	c #B69973",
"l.	c #728968",
"m.	c #70ACA6",
"n.	c #7F6834",
"o.	c #CDBBA2",
"p.	c #C2AA8A",
"q.	c #BE9F90",
"r.	c #949770",
"s.	c #667166",
"t.	c #76CCC1",
"u.	c #898380",
"v.	c #DCD0D4",
"w.	c #96E2D6",
"x.	c #7FD9C9",
"y.	c #81DAC9",
"z.	c #C1A784",
"A.	c #B8E7DE",
"B.	c #7DD7C7",
"C.	c #D7EFEB",
"D.	c #202F84",
"E.	c #263887",
"F.	c #CDD5E1",
"G.	c #919CC0",
"H.	c #447B9D",
"I.	c #82CBC5",
"J.	c #93DFD0",
"K.	c #63ADB2",
"L.	c #2F5B90",
"M.	c #42819A",
"N.	c #67B8B6",
"O.	c #346393",
"P.	c #2E5391",
"Q.	c #5296A7",
"R.	c #8BDBCC",
"S.	c #5BA6AC",
"T.	c #69BAB6",
"U.	c #29498C",
"V.	c #21338A",
"W.	c #3B7396",
"X.	c #4E96A2",
"Y.	c #356A95",
"Z.	c #1F2E89",
"`.	c #2E3679",
" +	c #2A3377",
".+	c #1D2A76",
"++	c #282F6A",
"@+	c #4A3215",
"#+	c #81510E",
"$+	c #B1885E",
"%+	c #48312D",
"&+	c #312311",
". . + @ # @ $ % & . * * * + + * & . + * * + . . + . & . + * @ * * + . . + + + . ",
"@ * . & + + . & . . * + + . + * . + + + + + . . . . . . * * * @ + + . . . + . . ",
"# + & & . . + * + + + + + . + * + + + + . + . . . + . + @ # @ @ + . . . . + + + ",
"+ + . . + + + . + + . . . . + * * * + . . . . + . . + + * * * . + . . . + + + + ",
"& . . + * * . . * + . . . . . + = - ; > , & . . & . & . . . & $ + + + + + + + @ ",
"+ + + . . . + * + + . . + + ' ) ! ~ { ] ^ / ) ( + + . + + + + & + * + * + + * * ",
"* * . . . . + * + . . . + ( _ : < [ } | 1 2 3 4 5 * + * * @ @ * . + + + . & . + ",
". + + + + . . . + + . . ' _ 6 7 8 9 0 a 8 b _ : 4 5 & . + * @ * . . + + & $ . . ",
". + . . & & . . . . & . ( _ c d e e e e e e f g h 5 + @ * * + & . . . . . . . . ",
"+ * * * + . + * * + + * i c j k e e e e e e e f l i + + * * + . $ & & . + + * * ",
"* * * * + * * @ + @ # @ i k k m n o p p q q a k d 5 . . + + . . & & . . + * @ @ ",
". . * * + + + + + * @ @ r s t u v w x y z A B t l C . . . . . & + + + + + . . + ",
"& . + + . + + + & . * D f E F G H I J K 9 L G M D N O . + + + + * * + + . . . & ",
"& . + * + . . . & P Q R S T J G H m J K t U V F W b X Y + * @ * + . + . + . . . ",
"& + + * + . . . * P Q Z e t w `  .K J F w x ..W +.b @.Y + * + + + . + + + + + * ",
"& . + + . . & & # @ #., +.B $.%.&.` y y ` *.%.=.o N Q + + . & $ + + + + * + * * ",
". + + * + + . & & + * -.;.>.S e s *.,.,.,.'.e =.).!.@ @ * + & $ . & . * @ . . . ",
". . * + * + . & & . * + ~.{.].+.k e e e e e t ^.{.* * @ @ * + + @ + + @ * . . + ",
". + + * + + . . . . + + . /.(._.:.s s s s <.[.}.|.+ + * * @ @ * * * + * * + + @ ",
". + + + + . + . . . . 1.1.@./.Q 2.2.2.2.2.2.3.@./.~.1.+ + + * + . & . . + + + * ",
"+ + + + + + . . + |.[.4.5.6././.7.7.8.7.7.9.0.@.a.v } ~.+ + . + & . + * * + + . ",
"+ + . + . + . . . |.b.c.} 1.u d.e.f.g.D h.i.j.b.a.c.4.~.. + + . * * # * * * . $ ",
"+ + + . . . + . . |.k.c.} 1.| }.l.l.= 7 m.n.u o.a.c.4.~.+ + . & + @ @ + + * + & ",
"+ + + + . + . + . |.b.4.p.p.q.r.m.m.o s.t.u.b.j.p.o.4.~.+ . $ v.& . . & . * @ + ",
"+ . & . * * + & & . [.j.9.u [.U w.x.y.y.y.w.j.p.z.9.o.~.* + + * & + * * + & & & ",
"* + + + + . . . . . + @.i.i.| c.A.B.y.y.y.C.c.q.R i.@.* + + + + & . + + + . + + ",
"* * * * + . . . + . . + D.E.F.c.A.B.B.y.y.C.c.G.D.D.+ + . . . . & . + . . + + + ",
". + * + . . + * + . + + E.H.I.J.y.B.y.x.x.J.J.K.L.D.. + + . . . . + + . & & . . ",
"& + + . . & + * . . . . E.M.t.x.x.x.x.y.y.x.y.N.O.D.+ + + . . & + + . + . & . + ",
"* * + . & & . . . . . & . P.Q.t.R.t.S.K.x.y.T.H.U.+ + + + + & & $ & . . . + + * ",
"@ + . . . . . . + . . . . V.W.S.T.Q.L.O.K.N.X.P.D.+ + + + . & $ $ & . + + + + * ",
"* + . & + * * + + + . . & V.O.Y.Y.P.Z.V.O.Y.Y.P.@ * + + + . $ v.& . + + + . . . ",
". . . . + + + * . . + . $ v.`.`.`. +.+.+`.`.`.+++ . & + + & & + * * * + & $ & . ",
". + + + * + * * + * * @ * '.R @./.!.k j R i.@.@+k . . + + . . + . + + . . . * @ ",
"+ + + + + + + + + + * @ a q.~.@./.Z e j #+/.@.$+W e . + + . . + + * * + . . + * ",
". . . . . & . & . & & . j %+&+<.<.8 & . <.<.<.%.t e . . + . + + + + + . . & . . ",
". . + . . & & . . $ $ $ & . . & . . & & & + + . . + + + . + + . & & & & + + * * ",
"+ * + + + . . + * + & & & + * * . . & & & + * . + * + + . + + . + . . + * * * * ",
"* + + + + + + + * * + + + + @ @ & + + . + @ + & + @ * . . + + & @ * + + * + . & ",
"+ + + + + . + . . * @ * + . + * $ . * * * @ + v.+ @ @ . . + + & & & & . + * + . "};
