/* XPM */
static char * C:\Users\Asus\Downloads\enemie_xpm[] = {
"40 40 237 2",
"  	c None",
". 	c #D1C5C9",
"+ 	c #CDC1C5",
"@ 	c #C4B8BC",
"# 	c #C2B6BA",
"$ 	c #D9CDD1",
"% 	c #E5D9DD",
"& 	c #D5C9CD",
"* 	c #CABEC2",
"= 	c #290A0A",
"- 	c #190B07",
"; 	c #450B0B",
"> 	c #881714",
", 	c #380A0A",
"' 	c #6B6C6B",
") 	c #646465",
"! 	c #46110D",
"~ 	c #A61918",
"{ 	c #A7A8A6",
"] 	c #B9B8B9",
"^ 	c #660E0D",
"/ 	c #971616",
"( 	c #B31A1B",
"_ 	c #7A1714",
": 	c #4F4F50",
"< 	c #BBC5B7",
"[ 	c #C5C5C3",
"} 	c #080706",
"| 	c #231204",
"1 	c #94683A",
"2 	c #D9B36C",
"3 	c #8A734B",
"4 	c #8A8A8A",
"5 	c #1D1F21",
"6 	c #7C7B7B",
"7 	c #434343",
"8 	c #282828",
"9 	c #150B04",
"0 	c #74190F",
"a 	c #82140F",
"b 	c #262419",
"c 	c #4E4E1A",
"d 	c #51701A",
"e 	c #626D1B",
"f 	c #274A1A",
"g 	c #152D16",
"h 	c #6A736D",
"i 	c #D4D5D6",
"j 	c #403838",
"k 	c #7D2D2D",
"l 	c #382A17",
"m 	c #694B1B",
"n 	c #54340D",
"o 	c #6B160B",
"p 	c #575858",
"q 	c #306E1F",
"r 	c #4E8A2B",
"s 	c #52A822",
"t 	c #4D9621",
"u 	c #447C25",
"v 	c #9E8C71",
"w 	c #DEE1DC",
"x 	c #969697",
"y 	c #33352E",
"z 	c #585B1C",
"A 	c #7B5828",
"B 	c #992116",
"C 	c #545132",
"D 	c #3F4042",
"E 	c #557449",
"F 	c #487735",
"G 	c #4D911D",
"H 	c #58B31D",
"I 	c #728A1D",
"J 	c #C7A459",
"K 	c #C9C2B8",
"L 	c #6F7826",
"M 	c #5FCE1B",
"N 	c #6E3211",
"O 	c #708F5F",
"P 	c #9A941D",
"Q 	c #BEA34E",
"R 	c #B89457",
"S 	c #966618",
"T 	c #38260B",
"U 	c #845D5A",
"V 	c #576830",
"W 	c #366D21",
"X 	c #47433E",
"Y 	c #B3BFAB",
"Z 	c #97A291",
"` 	c #6D8C29",
" .	c #0E1708",
"..	c #442C09",
"+.	c #A07C46",
"@.	c #D4A554",
"#.	c #E7B45A",
"$.	c #C79A48",
"%.	c #393819",
"&.	c #341D05",
"*.	c #B08B37",
"=.	c #C5A34C",
"-.	c #3C3A37",
";.	c #6E6963",
">.	c #F6F6F7",
",.	c #598438",
"'.	c #997339",
").	c #FBCD7C",
"!.	c #FED07F",
"~.	c #73741D",
"{.	c #95894B",
"].	c #888326",
"^.	c #C69D59",
"/.	c #F6C878",
"(.	c #FFD182",
"_.	c #E8BC72",
":.	c #141513",
"<.	c #1A1A19",
"[.	c #333334",
"}.	c #848484",
"|.	c #E9E8E8",
"1.	c #6A7317",
"2.	c #E8AD47",
"3.	c #F0BF69",
"4.	c #FCCF80",
"5.	c #EDC174",
"6.	c #B78327",
"7.	c #241808",
"8.	c #1D1105",
"9.	c #5D5F60",
"0.	c #A4B69A",
"a.	c #A98964",
"b.	c #E2B56B",
"c.	c #EDC478",
"d.	c #C98A10",
"e.	c #2B1C0A",
"f.	c #532D06",
"g.	c #6A4509",
"h.	c #5A3609",
"i.	c #81A66C",
"j.	c #A76515",
"k.	c #473928",
"l.	c #855A15",
"m.	c #CBA663",
"n.	c #665643",
"o.	c #E9AC56",
"p.	c #E7A92F",
"q.	c #A4710B",
"r.	c #4D330B",
"s.	c #6D4F34",
"t.	c #885A0B",
"u.	c #7A5617",
"v.	c #7A643C",
"w.	c #DA9608",
"x.	c #FEB201",
"y.	c #FCAD03",
"z.	c #C78708",
"A.	c #323E12",
"B.	c #644B23",
"C.	c #B48B43",
"D.	c #A37B39",
"E.	c #70665B",
"F.	c #786445",
"G.	c #B27D1C",
"H.	c #99650B",
"I.	c #834C0C",
"J.	c #FA9D03",
"K.	c #AD760B",
"L.	c #2A1A13",
"M.	c #6E4F4A",
"N.	c #B72C2D",
"O.	c #C63234",
"P.	c #B0705A",
"Q.	c #3C2306",
"R.	c #CA7508",
"S.	c #E37F05",
"T.	c #F7A705",
"U.	c #663A07",
"V.	c #784B14",
"W.	c #A78957",
"X.	c #C56B44",
"Y.	c #C37E73",
"Z.	c #D66837",
"`.	c #A77428",
" +	c #251A0B",
".+	c #EAA407",
"++	c #AB6508",
"@+	c #DC9505",
"#+	c #976A15",
"$+	c #5C584D",
"%+	c #2C2206",
"&+	c #CC8C0A",
"*+	c #864907",
"=+	c #EDC680",
"-+	c #F3CE8E",
";+	c #E6B868",
">+	c #7A4809",
",+	c #B57D0A",
"'+	c #B88611",
")+	c #70500F",
"!+	c #452917",
"~+	c #D47808",
"{+	c #E79707",
"]+	c #19130A",
"^+	c #8B6B28",
"/+	c #817E7D",
"(+	c #95590A",
"_+	c #3A1F03",
":+	c #C09D60",
"<+	c #D5A34E",
"[+	c #41260A",
"}+	c #724C0A",
"|+	c #D7A955",
"1+	c #83510B",
"2+	c #E59C08",
"3+	c #D68708",
"4+	c #332A23",
"5+	c #4A4A4A",
"6+	c #DFB973",
"7+	c #966B29",
"8+	c #C46B06",
"9+	c #B08C4B",
"0+	c #8C620B",
"a+	c #FD8B02",
"b+	c #7D756B",
"c+	c #F28704",
"d+	c #F39D05",
"e+	c #FA9505",
"f+	c #E78607",
"g+	c #523617",
"h+	c #B77609",
"i+	c #BA6D09",
"j+	c #CE922E",
"k+	c #FBBA1D",
"l+	c #97958E",
"m+	c #D3C499",
"n+	c #DCD0D4",
". . + @ # @ $ % & . * * * + + * & . + * * + . . + . & . + * @ * * + . . + + + . ",
"@ * . & + + . & . . * + + . + * . + + + + + . . . . . . * * * @ + + . . . + . . ",
"# + & & . . + * + + + + + . + = - + + + . + . . . + . + @ # @ @ + . . . . + + + ",
"+ + . . + + + . + + . . = - ; > , * + . . . ' ) . . + + * * * . + . . . + + + + ",
"& . . + * * . . * + . . ! ! > ~ ; ; = . . & { ] & . & . . . & $ + + + + + + + @ ",
"+ + + . . . + * + + . - ^ / ( / / _ , . . : < [ : + . + + + + & + * + * + + * * ",
"* * . . . . + * + . } = > ( ~ ( ~ ^ = . | 1 2 2 3 * + * ' 4 5 * 6 7 + + . & . + ",
". + + + + . . . 8 + 9 ; / ~ 0 > a ^ - + b c d d e f g g ' h ' [ i ) + + & $ . . ",
". + . . & & . . j k l ! 0 m n o ^ ! + . p g q r s t q u e v i w x y . . . . . . ",
"+ * * * + . + * = 0 z d e A B / 0 C 4 4 D y E F r t G H I J K { ) & & . + + * * ",
"* * * * + * * @ + ! L M I B ( B N C h p 8 p x { O r u t H P Q R S & . . + * @ @ ",
". . * * + + + + T n e s N > _ U V W V X 8 O ] < [ < Y Z O t ` I z  .+ + + . . + ",
"& . + + . + ..+.@.#.$.e %.&.b . ` *.=.J V -.;.4 ] i >.>.w Z ,.W d 3 x x ' . . & ",
"& . + * + ..'.).#.).!.@.~.L {.].^./.(._.$.z :.<.[.p }.{ i |.Y F 1.2.[ { : . . . ",
"& + + * + . @.3.2.).4.4.3.5.)._.4.(.(.2 2.6.7.| 8.- } <.9.{ |.0.,.6.a.p <.+ + * ",
"& . + + . . *./.4.4.4.4.(.(.4.(.b.c.).2 2.d.e.f.g.h.' [.} : { w i.~.j.k.* + * * ",
". + + * + + l.$.c._./.(.(.(.4.m.n.'.o.2.p.l. .h.q.r.-.s.t.u.k.O 0.F f * @ . . . ",
". . * + * + T v.a.$.2 _._.@.R v.8 l p.p.l.9 } h.t.} T w.x.y.z.A C E A.@ * . . + ",
". + + * + + 5 p X l B.C.D.N k E.j F.G.S k.5 9 H.B.:.I.J.x.x.y.y.K.%.f T * + + @ ",
". + + + + 9 b l L.X [.) M.N.O.O.P.b.*.Q.7 -.Q.q.E.3 R.S.T.x.y.y.y.q.f 6.+ [.+ * ",
"+ + + u.t.g.h.U.V.B.3 W.X.P.Y.Z.o.2 `.7.}  +q..+u.m ++++w.x.x.x.x.@+f #+$+: + . ",
"+ + %+&+y..+K.*+z.A b.(.c.=+-+).).;+u.} k.v.q.T..+>+U.&+y.x.x.x.x.@+Q.e.:.* . $ ",
"+ + h.w.x.x.,+f.'+#+C.R C.^./.4./.R l b m.J )+,+.+K.!+S ~+{+y.x.x.@+e.+ + * + & ",
"+ - H.K.z.,+r.&.)+S T :.]+B.1 F.v.l l 3 _.b.^+U.g.r./+p 9 m d.y.x.@+k.& . * @ + ",
"+ - H.&+(+h.&._+n.s. .8 L.'.W.W.W.W.:+;+@.<+C.[+t.&+`.V.Q.9.E.++y.,+$+[.+ & & & ",
"* 8.}+z..+,+}+Q.k.!+9 5 + )+$.|+@.@.<+$.|+m.^+1+2+x.y.T.3+^+4+ +H.m 5++ + . + + ",
"* * h.}+K.'+}+| T r.9 + . . ^+<+|+|+;+).6+7+8+3+x.x.x.x.y.J.++k.8 :.+ . . + + + ",
". + * (+H.}+f._+h.r.+ + + . h.R _.).4._.9+0+@+@+x.y.x.x.x.y.a+$.-. ++ . l & . . ",
"& + + t.&+q.g.%+&.8.. . . _+*+I.7+$.@.$.`.t.6.G.w.w.x.x.x.x.y.(+ +N n d.}+& . + ",
"* * + . Q.%+7.. . . . & . U.8+8+*+S <+;+_.3 b+F.>+d.y.y.y.x.y.1+ +#+{+J.R.h.+ * ",
"@ + . . . . . . + . . . . *+S.a+8+I.1 ^.b.$.B.j e.*+c+d+3+2+w.h.<.j.e+f+j.+ + * ",
"* + . & + * * + + + . . & >+f+a+a+~+(+V.u.l.}+[+1+n f.U.I.0+g.T g+j.I.U.+ . . . ",
". . . . + + + * . . + . $ _+*+c+a+a+c+~+*+| 9 Q.~+h+*+f.[+Q.>+i+n * * + & $ & . ",
". + + + * + * * + * * @ * 9 U.R.S.c+a+a+~+U.- . V.f+e+S.R.z.f+c+U.+ + . . . * @ ",
"+ + + + + + + + + + * @ 5 l.{+.+d.3+J.J.c+*+8.& (+T.y.y.x.x.y.y.h+* * + . . + * ",
". . . . . & . & . & & . j F.6.d+y.x.y.e+++f.. 4+`.j+k+y.x.x.x.x.i+9 + . . & . . ",
". . + . . & & . . $ $ $ y 9.b++.f+e+R.l.& + + -.5+l+m+9+p.y.J.z.t.& & & + + * * ",
"+ * + + + . . + * + & & & 8 : [.g.I.T & & + * . - 5+D ) K '.I.[++ . . + * * * * ",
"* + + + + + + + * * + + + + @ @ & + + . + @ + & + @ * <.D + + & @ * + + * + . & ",
"+ + + + + . + . . * @ * + . + * $ . * * * @ + n++ @ @ . . + + & & & & . + * + . "};
