/* XPM */
static char * C:\Users\Asus\Desktop\mario_right_xpm[] = {
"40 40 449 2",
"  	c None",
". 	c #D1C5C9",
"+ 	c #CDC1C5",
"@ 	c #C4B8BC",
"# 	c #C2B6BA",
"$ 	c #D9CDD1",
"% 	c #E5D9DD",
"& 	c #D5C9CD",
"* 	c #CABEC2",
"= 	c #C9BDC0",
"- 	c #B5A7AB",
"; 	c #B4A6AA",
"> 	c #B7AAAD",
", 	c #B3A5A8",
"' 	c #C2B5B9",
") 	c #C3B6BA",
"! 	c #BFB2B6",
"~ 	c #B09EA2",
"{ 	c #6F191E",
"] 	c #6D0B14",
"^ 	c #6D2014",
"/ 	c #6D1413",
"( 	c #6E0A13",
"_ 	c #8C676A",
": 	c #C2B5B8",
"< 	c #D0C4C8",
"[ 	c #D3C7CB",
"} 	c #9D888B",
"| 	c #5B1416",
"1 	c #812C33",
"2 	c #E93B68",
"3 	c #EF4668",
"4 	c #F0B36A",
"5 	c #F17F72",
"6 	c #F34073",
"7 	c #BA2848",
"8 	c #775D5F",
"9 	c #CABDC1",
"0 	c #978689",
"a 	c #A13041",
"b 	c #E63963",
"c 	c #D73361",
"d 	c #BE365F",
"e 	c #D98A44",
"f 	c #F2CA63",
"g 	c #FAE4C0",
"h 	c #DE8BAF",
"i 	c #95173E",
"j 	c #735658",
"k 	c #C9BDC1",
"l 	c #938285",
"m 	c #AC3D4D",
"n 	c #CE3160",
"o 	c #CF326C",
"p 	c #A82858",
"q 	c #320E1A",
"r 	c #38290F",
"s 	c #403719",
"t 	c #434338",
"u 	c #392A32",
"v 	c #250510",
"w 	c #2F2728",
"x 	c #787073",
"y 	c #BDB2B6",
"z 	c #C6BABE",
"A 	c #998688",
"B 	c #A73646",
"C 	c #D23262",
"D 	c #8E224A",
"E 	c #440F26",
"F 	c #370C1E",
"G 	c #000000",
"H 	c #81797C",
"I 	c #BCB1B5",
"J 	c #BCAFB3",
"K 	c #9B8689",
"L 	c #7B192D",
"M 	c #CE3161",
"N 	c #90234C",
"O 	c #280917",
"P 	c #B1A6AA",
"Q 	c #AD9FA3",
"R 	c #5A030B",
"S 	c #AA235A",
"T 	c #B42863",
"U 	c #340C1D",
"V 	c #150908",
"W 	c #432624",
"X 	c #424141",
"Y 	c #454545",
"Z 	c #432423",
"` 	c #443635",
" .	c #464848",
"..	c #2D2D2D",
"+.	c #080708",
"@.	c #6B6567",
"#.	c #BEB3B7",
"$.	c #B6A6A9",
"%.	c #731A1E",
"&.	c #B33A65",
"*.	c #A02859",
"=.	c #2E0A19",
"-.	c #050301",
";.	c #712F2B",
">.	c #FB8F89",
",.	c #F3F0F0",
"'.	c #D9D7D7",
").	c #F08E86",
"!.	c #E1B1AE",
"~.	c #EBEFF0",
"{.	c #B3B3B3",
"].	c #514B4D",
"^.	c #625C5E",
"/.	c #C5BABE",
"(.	c #D9AFB1",
"_.	c #EA756C",
":.	c #E8B6AB",
"<.	c #352527",
"[.	c #793632",
"}.	c #F56D65",
"|.	c #FB948E",
"1.	c #E1DEDE",
"2.	c #2D2C2C",
"3.	c #C7A295",
"4.	c #64514B",
"5.	c #7A7C7D",
"6.	c #F0EDEE",
"7.	c #CCC0C4",
"8.	c #CBC0C3",
"9.	c #E2AEB1",
"0.	c #DA7768",
"a.	c #AB6E3D",
"b.	c #E7C1AE",
"c.	c #2B2522",
"d.	c #853935",
"e.	c #FF9186",
"f.	c #FBD0C5",
"g.	c #DFDEDE",
"h.	c #1B1B1B",
"i.	c #C3A497",
"j.	c #564741",
"k.	c #6B6E6F",
"l.	c #FDF7F3",
"m.	c #E3BEAB",
"n.	c #A3836E",
"o.	c #C7B9BB",
"p.	c #E5A4A6",
"q.	c #D96951",
"r.	c #945F24",
"s.	c #E58476",
"t.	c #261615",
"u.	c #1F0908",
"v.	c #896058",
"w.	c #FEDBCC",
"x.	c #F8D4C9",
"y.	c #B75E59",
"z.	c #E87E75",
"A.	c #C68F84",
"B.	c #CCB7AC",
"C.	c #FDE1D5",
"D.	c #E4BDA4",
"E.	c #916639",
"F.	c #C5B7B9",
"G.	c #D5B3B6",
"H.	c #DB928D",
"I.	c #D46B4C",
"J.	c #F86E64",
"K.	c #9A4540",
"L.	c #1C0B0A",
"M.	c #33322E",
"N.	c #B49B8F",
"O.	c #E4BFB1",
"P.	c #816559",
"Q.	c #C36945",
"R.	c #F66E5F",
"S.	c #FF948A",
"T.	c #FFA69A",
"U.	c #FFA296",
"V.	c #EC957F",
"W.	c #97693E",
"X.	c #C2B2B3",
"Y.	c #C1ACB0",
"Z.	c #9D4643",
"`.	c #A24944",
" +	c #F66F67",
".+	c #8E3E3A",
"++	c #B07269",
"@+	c #E4A99C",
"#+	c #6F5E57",
"$+	c #4A300B",
"%+	c #8E4437",
"&+	c #9F4541",
"*+	c #9D433F",
"=+	c #9F4440",
"-+	c #914236",
";+	c #60452F",
">+	c #948B8D",
",+	c #BCB0B4",
"'+	c #B9AEB2",
")+	c #0C090A",
"!+	c #9E4742",
"~+	c #F06C65",
"{+	c #FF736C",
"]+	c #AF554F",
"^+	c #2F2B27",
"/+	c #302A26",
"(+	c #000203",
"_+	c #080707",
":+	c #5B5557",
"<+	c #B6ABAF",
"[+	c #C7BCC0",
"}+	c #595455",
"|+	c #120F0F",
"1+	c #A44C42",
"2+	c #FB7065",
"3+	c #F68E84",
"4+	c #F5C6B7",
"5+	c #DDB0A2",
"6+	c #2F1D1B",
"7+	c #160908",
"8+	c #190B0A",
"9+	c #190B0B",
"0+	c #160B08",
"a+	c #16120F",
"b+	c #565052",
"c+	c #C0B4B8",
"d+	c #D4C8CC",
"e+	c #C4B9BD",
"f+	c #5E585A",
"g+	c #5F3B13",
"h+	c #CC6746",
"i+	c #FA736E",
"j+	c #F77971",
"k+	c #F2756D",
"l+	c #DE645D",
"m+	c #DC645C",
"n+	c #DD645C",
"o+	c #E0655E",
"p+	c #BD5E45",
"q+	c #8B6E5B",
"r+	c #C1B6B9",
"s+	c #C2B7BA",
"t+	c #7D6768",
"u+	c #8D2533",
"v+	c #C53967",
"w+	c #B03051",
"x+	c #751716",
"y+	c #771917",
"z+	c #984D23",
"A+	c #A35D27",
"B+	c #A15C27",
"C+	c #AF8271",
"D+	c #CCBDBE",
"E+	c #A29194",
"F+	c #A54A55",
"G+	c #D1305D",
"H+	c #B3264F",
"I+	c #700C25",
"J+	c #861736",
"K+	c #70300E",
"L+	c #B79E80",
"M+	c #CFC1A8",
"N+	c #CEBFA7",
"O+	c #BEA88C",
"P+	c #AF9A95",
"Q+	c #C5B9BC",
"R+	c #A69498",
"S+	c #7F3741",
"T+	c #D5335D",
"U+	c #FF4577",
"V+	c #D83359",
"W+	c #9B2333",
"X+	c #A34947",
"Y+	c #BD9F7F",
"Z+	c #EFECE5",
"`+	c #FEFFFF",
" @	c #E7E0D6",
".@	c #B79C7A",
"+@	c #B19B94",
"@@	c #C1B4B7",
"#@	c #DCD0D4",
"$@	c #C1B4B8",
"%@	c #5F2829",
"&@	c #A22252",
"*@	c #D5356B",
"=@	c #EF3D6E",
"-@	c #FF4174",
";@	c #E2455C",
">@	c #946B2E",
",@	c #F2F0EC",
"'@	c #FBFCFE",
")@	c #F8F8F8",
"!@	c #FDFFFF",
"~@	c #E8E1D8",
"{@	c #8E632D",
"]@	c #BDAEB0",
"^@	c #5E3A40",
"/@	c #901C44",
"(@	c #AB265C",
"_@	c #CF3368",
":@	c #F53E71",
"<@	c #E1425E",
"[@	c #9B5E38",
"}@	c #DDCFC1",
"|@	c #F6F5F3",
"1@	c #F9FAFB",
"2@	c #FAFAFB",
"3@	c #F4F2F0",
"4@	c #D5C6B2",
"5@	c #9D7D66",
"6@	c #C4B6B8",
"7@	c #C4B9C2",
"8@	c #464784",
"9@	c #480C22",
"0@	c #8E1A3F",
"a@	c #AF285F",
"b@	c #CD3267",
"c@	c #E4396A",
"d@	c #A62D51",
"e@	c #8E572A",
"f@	c #D9CDBC",
"g@	c #F3F1EE",
"h@	c #F3F1EF",
"i@	c #D2C2AC",
"j@	c #A07E61",
"k@	c #C9BBBE",
"l@	c #C1B6BE",
"m@	c #44498E",
"n@	c #252B7A",
"o@	c #49102B",
"p@	c #8A1635",
"q@	c #B82B65",
"r@	c #A5234F",
"s@	c #5F070E",
"t@	c #590E05",
"u@	c #89592C",
"v@	c #997138",
"w@	c #946A32",
"x@	c #B1946C",
"y@	c #E4DDD7",
"z@	c #D2C7CA",
"A@	c #444A8E",
"B@	c #336194",
"C@	c #2D3A75",
"D@	c #4B1138",
"E@	c #6C0613",
"F@	c #61000C",
"G@	c #510A09",
"H@	c #6F8D83",
"I@	c #7EB197",
"J@	c #82B697",
"K@	c #6A9583",
"L@	c #536D83",
"M@	c #7B7FB0",
"N@	c #CABEC4",
"O@	c #C4B9C1",
"P@	c #37418C",
"Q@	c #3C7696",
"R@	c #376E99",
"S@	c #395172",
"T@	c #535C5E",
"U@	c #6C7F73",
"V@	c #6E877D",
"W@	c #7FD5C5",
"X@	c #83E2D0",
"Y@	c #85E3D1",
"Z@	c #64B7B8",
"`@	c #306393",
" #	c #585790",
".#	c #C9BDC3",
"+#	c #CABFC5",
"@#	c #928DA9",
"##	c #4B6595",
"$#	c #3D7896",
"%#	c #3F839A",
"&#	c #4D98A8",
"*#	c #6EC5C1",
"=#	c #83E1D0",
"-#	c #81DACA",
";#	c #61A1B3",
">#	c #61A8B2",
",#	c #4E8DA4",
"'#	c #546594",
")#	c #9B93AC",
"!#	c #CBBFC4",
"~#	c #CFC3C8",
"{#	c #605F95",
"]#	c #356693",
"^#	c #428499",
"/#	c #3F7F97",
"(#	c #498E9F",
"_#	c #6FC1BB",
":#	c #6EBFBA",
"<#	c #2F4B92",
"[#	c #325F90",
"}#	c #305A90",
"|#	c #76719A",
"1#	c #D8CDD2",
"2#	c #7E7AA1",
"3#	c #3E6494",
"4#	c #3C7797",
"5#	c #3B7596",
"6#	c #3C7697",
"7#	c #3B7496",
"8#	c #263E8B",
"9#	c #315C91",
"0#	c #3F5E93",
"a#	c #8C85A5",
"b#	c #7B789C",
"c#	c #273784",
"d#	c #203082",
"e#	c #243484",
"f#	c #8F8AA4",
"g#	c #99837A",
"h#	c #76512C",
"i#	c #76502B",
"j#	c #734F2B",
"k#	c #1A151B",
"l#	c #4D3625",
"m#	c #58463C",
"n#	c #91898C",
"o#	c #827979",
"p#	c #5F3D0E",
"q#	c #925E17",
"r#	c #8F5C16",
"s#	c #8F5D18",
"t#	c #AC8F43",
"u#	c #5A481E",
"v#	c #6B5728",
"w#	c #8E7D51",
"x#	c #8D8487",
"y#	c #CEC2C6",
"z#	c #7A7275",
"A#	c #1E1305",
"B#	c #402A0B",
"C#	c #3E280B",
"D#	c #3F2A0C",
"E#	c #6F5D2E",
"F#	c #272313",
"G#	c #373019",
"H#	c #544926",
"I#	c #4C4748",
"J#	c #9C9396",
"K#	c #847D7F",
"L#	c #877F82",
"M#	c #827A7D",
"N#	c #80787B",
"O#	c #91888B",
"P#	c #CABFC3",
". . + @ # @ $ % & . * * * + + * & . + * * + . . + . & . + * @ * * + . . + + + . ",
"@ * . & + + . & . . * + + . + * . + + + + + . . . . . . * * * @ + + . . . + . . ",
"# + & & . . + * + + + + + . + * + + + + . + . . . + . + @ # @ @ + . . . . + + + ",
"+ + . . + + + . + + . . . . + * * * + . . . . + . . + + * * * . + . . . + + + + ",
"& . . + * * . . * + . . . . . + @ * = - ; > ; , ' . & . . . & $ + + + + + + + @ ",
"+ + + . . . + * + + . . + + . . ) ! ~ { ] ^ / ( _ : < + + + + & + * + * + + * * ",
"* * . . . . + * + . . . + + . [ } | 1 2 3 4 5 6 7 8 9 * * @ @ * . + + + . & . + ",
". + + + + . . . + + . . + + . 0 a b c d e f g h i j . . + * @ * . . + + & $ . . ",
". + . . & & . . . . & . + k l m n o p q r s t u v w x y * * + & . . . . . . . . ",
"+ * * * + . + * * + + * z A B C D E F G G G G G G G G H I * + . $ & & . + + * * ",
"* * * * + * * @ + @ # J K L M N O G G G G G G G G G G G P + . . & & . . + * @ @ ",
". . * * + + + + + * @ Q R S T U G V W X Y Z `  ...G +.@.#.. . & + + + + + . . + ",
"& . + + . + + + & . * $.%.&.*.=.-.;.>.,.'.).!.~.{.].^./.+ + + + * * + + . . . & ",
"& . + * + . . . & . + (._.:.<.G [.}.|.1.2.3.4.5.6.7.8.< + * @ * + . + . + . . . ",
"& + + * + . . . * + 9.0.a.b.c.G d.e.f.g.h.i.j.k.l.m.n.o.+ * + + + . + + + + + * ",
"& . + + . . & & # @ p.q.r.s.t.G u.v.w.x.y.z.A.B.C.D.E.F.+ . & $ + + + + * + * * ",
". + + * + + . & & + G.H.I.J.K.L.M.N.O.P.Q.R.S.T.U.V.W.X.* + & $ . & . * @ . . . ",
". . * + * + . & & . * Y.Z.`. +.+++@+#+G $+%+&+*+=+-+;+>+,+* + + @ + + @ * . . + ",
". + + * + + . . . . + '+^.)+!+~+{+]+^+/+(+G G G G G _+:+<+@ @ * * * + * * + + @ ",
". + + + + . + . . . . + [+}+|+1+2+3+4+5+6+7+8+9+0+a+b+c++ + * + . & . . + + + * ",
"+ + + + + + . . + . + . d+e+f+g+h+i+j+k+l+m+n+o+p+q+r+< + + . + & . + * * + + . ",
"+ + . + . + . . . + + + . . s+t+u+v+w+x+y+z+A+B+C+D+. . . + + . * * # * * * . $ ",
"+ + + . . . + . . + * * + . E+F+G+H+I+J+K+L+M+N+O+P++ + + + . & + @ @ + + * + & ",
"+ + + + . + . + . + @ * Q+R+S+T+U+V+W+X+Y+Z+`+`+ @.@+@@@+ . $ #@& . . & . * @ + ",
"+ . & . * * + & & . . . $@%@&@*@=@-@;@>@,@'@)@)@!@~@{@]@* + + * & + * * + & & & ",
"* + + + + . . . . . + + ' ^@/@(@_@:@<@[@}@|@1@2@3@4@5@6@+ + + + & . + + + . + + ",
"* * * * + . . . + . . + 7@8@9@0@a@b@c@d@e@f@g@h@i@j@k@+ . . . . & . + . . + + + ",
". + * + . . + * + . + + l@m@n@o@p@q@r@s@t@u@v@w@x@y@z@+ + . . . . + + . & & . . ",
"& + + . . & + * . . . . 7@A@B@C@D@E@F@G@H@I@J@K@L@M@N@+ + . . & + + . + . & . + ",
"* * + . & & . . . . . & O@P@Q@R@S@T@U@V@W@X@Y@Z@`@ #.#+ + + & & $ & . . . + + * ",
"@ + . . . . . . + . . . +#@###$#%#&#*#=#-#;#>#,#'#)#!#+ + . & $ $ & . + + + + * ",
"* + . & + * * + + + . . & ~#{#]#^#/#(#_#:#<#[#}#|#* + + + . $ #@& . + + + . . . ",
". . . . + + + * . . + . $ 1#2#3#4#5#5#6#7#8#9#0#a#. & + + & & + * * * + & $ & . ",
". + + + * + * * + * * @ * + .#b#c#c#c#c#c#d#e#f#k . . + + . . + . + + . . . * @ ",
"+ + + + + + + + + + * @ @ @ + g#h#i#i#i#j#k#l#m#n#. . + + . . + + * * + . . + * ",
". . . . . & . & . & & . + + . o#p#q#r#r#s#t#u#v#w#x#y#. + . + + + + + . . & . . ",
". . + . . & & . . $ $ $ & . . z#A#B#C#C#D#E#F#G#H#I#k + . + + . & & & & + + * * ",
"+ * + + + . . + * + & & & + * J#H K#L#L#L#M#N#K#N#O#P#+ . + + . + . . + * * * * ",
"* + + + + + + + * * + + + + @ @ & + + . + @ + & + @ * . . + + & @ * + + * + . & ",
"+ + + + + . + . . * @ * + . + * $ . * * * @ + #@+ @ @ . . + + & & & & . + * + . "};
