/* XPM */
static char * C:\Users\Asus\Desktop\mario_left_xpm[] = {
"40 40 186 2",
"  	c None",
". 	c #D1C5C9",
"+ 	c #CDC1C5",
"@ 	c #C4B8BC",
"# 	c #C2B6BA",
"$ 	c #D9CDD1",
"% 	c #E5D9DD",
"& 	c #D5C9CD",
"* 	c #CABEC2",
"= 	c #6D0B13",
"- 	c #6D1413",
"; 	c #6D2014",
"> 	c #4B0000",
", 	c #B7274C",
"' 	c #F34073",
") 	c #F47C72",
"! 	c #F0B36A",
"~ 	c #EF4668",
"{ 	c #EC3C6B",
"] 	c #8A1839",
"^ 	c #540101",
"/ 	c #560906",
"( 	c #DE8BAF",
"_ 	c #FAE4C0",
": 	c #F2CA63",
"< 	c #D98A44",
"[ 	c #B73358",
"} 	c #D53365",
"| 	c #E53967",
"1 	c #9C1B38",
"2 	c #000000",
"3 	c #120000",
"4 	c #290815",
"5 	c #392A32",
"6 	c #444545",
"7 	c #3D290C",
"8 	c #340D1C",
"9 	c #AC285C",
"0 	c #CF336A",
"a 	c #CE3163",
"b 	c #A72139",
"c 	c #460E24",
"d 	c #8E224A",
"e 	c #90234C",
"f 	c #791128",
"g 	c #5C050B",
"h 	c #33322E",
"i 	c #49362D",
"j 	c #432524",
"k 	c #1B0B0A",
"l 	c #B62A64",
"m 	c #B2B2B2",
"n 	c #EBEFF0",
"o 	c #E5B8A8",
"p 	c #F68E86",
"q 	c #DCDBDB",
"r 	c #F3F1EE",
"s 	c #712F2B",
"t 	c #A62657",
"u 	c #B33A65",
"v 	c #77161A",
"w 	c #FFF9F5",
"x 	c #6F8D83",
"y 	c #64514B",
"z 	c #C5A396",
"A 	c #2D2A29",
"B 	c #E1DEDE",
"C 	c #FE938A",
"D 	c #F86E64",
"E 	c #793632",
"F 	c #332827",
"G 	c #E97A70",
"H 	c #8E5F21",
"I 	c #6B6E6F",
"J 	c #564741",
"K 	c #1B181B",
"L 	c #FBD5C9",
"M 	c #8A3C38",
"N 	c #E7C1AE",
"O 	c #AB6E3D",
"P 	c #DA6952",
"Q 	c #FDE1D5",
"R 	c #CDBBAA",
"S 	c #C68F84",
"T 	c #B75E59",
"U 	c #856359",
"V 	c #2B1A18",
"W 	c #E58476",
"X 	c #945F24",
"Y 	c #8F5C17",
"Z 	c #EC957F",
"` 	c #FFA498",
" .	c #F46D66",
"..	c #C86846",
"+.	c #B69D88",
"@.	c #9D4541",
"#.	c #FA736B",
"$.	c #D46A4B",
"%.	c #E2695C",
"&.	c #5B3912",
"*.	c #97433B",
"=.	c #423014",
"-.	c #6F5E57",
";.	c #E4A99C",
">.	c #B07269",
",.	c #A34A44",
"'.	c #AF554F",
").	c #0B0702",
"!.	c #160A08",
"~.	c #F5C6B7",
"{.	c #764D14",
"].	c #BD5E45",
"^.	c #DD645C",
"/.	c #5F3D0E",
"(.	c #A15C26",
"_.	c #965031",
":.	c #C53967",
"<.	c #942433",
"[.	c #4B0E00",
"}.	c #BBA381",
"|.	c #D2C2AC",
"1.	c #70300E",
"2.	c #700C25",
"3.	c #D5325C",
"4.	c #BA9D7A",
"5.	c #E8E1D8",
"6.	c #FBFBFC",
"7.	c #EFECE5",
"8.	c #FF4376",
"9.	c #DCD0D4",
"0.	c #8D6023",
"a.	c #F4F2F1",
"b.	c #946A2F",
"c.	c #E2445D",
"d.	c #F53E71",
"e.	c #D7CAB7",
"f.	c #DDCFC1",
"g.	c #901C44",
"h.	c #4C0A1A",
"i.	c #8C582B",
"j.	c #252C7C",
"k.	c #B1946C",
"l.	c #927038",
"m.	c #4A1132",
"n.	c #213389",
"o.	c #5B68AA",
"p.	c #536D83",
"q.	c #6A9583",
"r.	c #82B697",
"s.	c #7EB197",
"t.	c #61000C",
"u.	c #6C0613",
"v.	c #2D3A75",
"w.	c #376E99",
"x.	c #1D2B86",
"y.	c #336393",
"z.	c #69BBB9",
"A.	c #84E2D0",
"B.	c #7FD5C5",
"C.	c #6E877D",
"D.	c #535C5E",
"E.	c #395172",
"F.	c #2D518E",
"G.	c #4E8DA4",
"H.	c #61A5B3",
"I.	c #6EC5C1",
"J.	c #4D98A8",
"K.	c #3F839A",
"L.	c #3C7696",
"M.	c #315B90",
"N.	c #1F2C88",
"O.	c #2F4B92",
"P.	c #6FC1BB",
"Q.	c #202F88",
"R.	c #263683",
"S.	c #263E8B",
"T.	c #734F2B",
"U.	c #76502B",
"V.	c #6D5A2B",
"W.	c #5A481E",
"X.	c #AC8F43",
"Y.	c #281A04",
"Z.	c #4C462F",
"`.	c #2F2A16",
" +	c #4A300B",
".+	c #1E1305",
". . + @ # @ $ % & . * * * + + * & . + * * + . . + . & . + * @ * * + . . + + + . ",
"@ * . & + + . & . . * + + . + * . + + + + + . . . . . . * * * @ + + . . . + . . ",
"# + & & . . + * + + + + + . + * + + + + . + . . . + . + @ # @ @ + . . . . + + + ",
"+ + . . + + + . + + . . . . + * * * + . . . . + . . + + * * * . + . . . + + + + ",
"& . . + * * . . * + . . . . . + @ * + . . & . . & . & . . . & $ + + + + + + + @ ",
"+ + + . . . + * + + . . + + . = = - ; = = . + . + + . + + + + & + * + * + + * * ",
"* * . . . . + * + . . . + + > , ' ) ! ~ { ] ^ / @ * + * * @ @ * . + + + . & . + ",
". + + + + . . . + + . . + + ^ ] ( _ : < [ } | 1 > . & . + * @ * . . + + & $ . . ",
". + . . & & . . . . & . + 2 3 4 5 6 7 7 8 9 0 a b > + @ * * + & . . . . . . . . ",
"+ * * * + . + * * + + * 2 2 2 2 2 2 2 2 2 8 c d } b ^ + * * + . $ & & . + + * * ",
"* * * * + * * @ + @ # @ 2 2 2 2 2 2 2 2 2 2 2 4 e a f g + + . . & & . . + * @ @ ",
". . * * + + + + + * @ @ 2 2 2 h 6 i j 6 6 j k 2 8 l 9 g . . . & + + + + + . . + ",
"& . + + . + + + & . * * + 2 2 m n o p q r p s 2 4 t u v + + + + * * + + . . . & ",
"& . + * + . . . & . + . . . . w x y z A B C D E 2 F o G + * @ * + . + . + . . . ",
"& + + * + . . . * + . . . H o w I J z K B L p M 2 A N O P * + + + . + + + + + * ",
"& . + + . . & & # @ + + * H o Q R S G T L L U k 2 V W X P . & $ + + + + * + * * ",
". + + * + + . & & + * * * Y Z ` ` C  ...U N +.h k @.#.$.%.+ & $ . & . * @ . . . ",
". . * + * + . & & . * + + &.*.@.@.@.*.=.2 -.;.>.M  .,.@.@ * + + @ + + @ * . . + ",
". + + * + + . . . . + + 2 2 2 2 2 2 2 2 F A '.#. .@.2 2 * @ @ * * * + * * + + @ ",
". + + + + . + . . . . + & 2 ).!.k k !.V o ~.p D ,.2 2 + + + * + . & . . + + + * ",
"+ + + + + + . . + . + . & . {.].^.^.^.^.#.) ) ../.2 + . + + . + & . + * * + + . ",
"+ + . + . + . . . + + + . . . (.(.(._.v - , :.<.[.& . . . + + . * * # * * * . $ ",
"+ + + . . . + . . + * * + . . }.|.|.}.1.] 2., 3.1 . + + + + . & + @ @ + + * + & ",
"+ + + + . + . + . + @ * * . 4.5.6.6.7.4.,.<.3.8.3.f * @ + . $ 9.& . . & . * @ + ",
"+ . & . * * + & & . . . + 0.5.6.6.6.6.a.b.c.8.d.0 t ^ @ * + + * & + * * + & & & ",
"* + + + + . . . . . + + + 0.e.a.6.6.a.f._.c.d.0 9 g.h.* + + + + & . + + + . + + ",
"* * * * + . . . + . . + . . b.|.n r e.i.t ~ 0 9 ] c j.+ . . . . & . + . . + + + ",
". + * + . . + * + . + + + . 5.k.b.l.i./ g t l ] m.j.n.+ + . . . . + + . & & . . ",
"& + + . . & + * . . . . . + o.p.q.r.s.x [.t.u.m.v.w.n.+ + . . & + + . + . & . + ",
"* * + . & & . . . . . & . . x.y.z.A.A.B.x C.D.E.w.p.n.+ + + & & $ & . . . + + * ",
"@ + . . . . . . + . . . . . . F.G.H.H.B.B.I.J.K.L.M.n.+ + . & $ $ & . + + + + * ",
"* + . & + * * + + + . . & . . N.M.M.O.P.P.G.K.K.y.N.+ + + . $ 9.& . + + + . . . ",
". . . . + + + * . . + . $ 9.$ N.M.M.O.L.L.L.L.p.y.Q.& + + & & + * * * + & $ & . ",
". + + + * + * * + * * @ * + + . j.j.x.R.R.R.R.R.S.. . + + . . + . + + . . . * @ ",
"+ + + + + + + + + + * @ @ @ + 2 =.i K T.U.U.U.U.U.. . + + . . + + * * + . . + * ",
". . . . . & . & . & & . + + 2 l.V.W.X.Y Y Y Y /.Y.+ . . + . + + + + + . . & . . ",
". . + . . & & . . $ $ $ & . 2 Z.`.`.V.=.7 7  +.+2 + + + . + + . & & & & + + * * ",
"+ * + + + . . + * + & & & + 2 2 2 2 2 2 2 2 2 2 + * + + . + + . + . . + * * * * ",
"* + + + + + + + * * + + + + @ @ & + + . + @ + & + @ * . . + + & @ * + + * + . & ",
"+ + + + + . + . . * @ * + . + * $ . * * * @ + 9.+ @ @ . . + + & & & & . + * + . "};
