/* XPM */
static char *_21d054f83144259a1c97cccc37bfe14fmd0maTel88JydYg[] = {
/* columns rows colors chars-per-pixel */
"40 40 194 2 ",
"   c #7B674F",
".  c #7A694E",
"X  c #7E6B53",
"o  c #7F6D58",
"O  c #7F715B",
"+  c #846B55",
"@  c #8A6C55",
"#  c #856E59",
"$  c #8C6D59",
"%  c #946C57",
"&  c #936E5B",
"*  c #847154",
"=  c #8B7155",
"-  c #85725B",
";  c #8C735C",
":  c #8B795F",
">  c #917156",
",  c #93735D",
"<  c #9B745D",
"1  c #93795E",
"2  c #9B795E",
"3  c #A27C5F",
"4  c #857761",
"5  c #8D7561",
"6  c #867A62",
"7  c #8C7B62",
"8  c #8D7F69",
"9  c #937661",
"0  c #9B7563",
"q  c #937B63",
"w  c #9B7B64",
"e  c #977668",
"r  c #937C6A",
"t  c #9C7C6A",
"y  c #A37D63",
"u  c #AB7E63",
"i  c #A07669",
"p  c #A37D6A",
"a  c #A97D6A",
"s  c #B07F6E",
"d  c #878167",
"f  c #8D8066",
"g  c #8D836B",
"h  c #8D8A6B",
"j  c #948066",
"k  c #9C8265",
"l  c #94836B",
"z  c #9B836C",
"x  c #958B6D",
"c  c #9B896E",
"v  c #938671",
"b  c #9B8671",
"n  c #958972",
"m  c #9C8C74",
"M  c #968E78",
"N  c #9C8D7A",
"B  c #949375",
"V  c #9C9275",
"C  c #969379",
"Z  c #9D937B",
"A  c #9D997D",
"S  c #A78565",
"D  c #AB8464",
"F  c #AB8964",
"G  c #A3846B",
"H  c #AA836B",
"J  c #A38A6C",
"K  c #AB8B6D",
"L  c #B18264",
"P  c #B38769",
"I  c #B08C6F",
"U  c #A58472",
"Y  c #A98375",
"T  c #A38D74",
"R  c #AA8D74",
"E  c #A38E7A",
"W  c #A88F7F",
"Q  c #B48170",
"!  c #BB8777",
"~  c #B08C71",
"^  c #A29175",
"/  c #A3947C",
"(  c #AB967C",
")  c #A4997D",
"_  c #AA997E",
"`  c #B2957C",
"'  c #9F9581",
"]  c #A59582",
"[  c #AA9581",
"{  c #A49C83",
"}  c #AB9C83",
"|  c #A59D88",
" . c #AB9E8A",
".. c #B19D85",
"X. c #B49F88",
"o. c #A4A082",
"O. c #A7A285",
"+. c #A7A486",
"@. c #A5A284",
"#. c #ABA080",
"$. c #ABA387",
"%. c #AFA284",
"&. c #ADA287",
"*. c #AEA184",
"=. c #A9A787",
"-. c #ADA687",
";. c #ACA286",
":. c #A5A18A",
">. c #AFA28A",
",. c #ABA588",
"<. c #AAA689",
"1. c #ACA589",
"2. c #ACA38B",
"3. c #A7AA8C",
"4. c #A8AB8A",
"5. c #ACA88B",
"6. c #AEA88C",
"7. c #AFAC8E",
"8. c #AEAB8D",
"9. c #B0A587",
"0. c #B2A287",
"q. c #B9A282",
"w. c #B1A188",
"e. c #B3A48B",
"r. c #B4A48B",
"t. c #B2A38C",
"y. c #B3A48B",
"u. c #B8A38A",
"i. c #B7A98F",
"p. c #B4AA8F",
"a. c #B2A98D",
"s. c #B9AA8F",
"d. c #ABA691",
"f. c #ACAB92",
"g. c #B4A790",
"h. c #B3A693",
"j. c #B6AB90",
"k. c #B3AC93",
"l. c #BAAB91",
"z. c #B9AB92",
"x. c #B8A990",
"c. c #BCAC93",
"v. c #BBAC93",
"b. c #B6AD9A",
"n. c #BAAD9A",
"m. c #ADB190",
"M. c #AEB191",
"N. c #B6B093",
"B. c #B7B296",
"V. c #B6B597",
"C. c #B5B295",
"Z. c #BFB197",
"A. c #BAB195",
"S. c #B6B39A",
"D. c #BCB398",
"F. c #BEB59A",
"G. c #BBB49A",
"H. c #B7B99B",
"J. c #BEBC9E",
"K. c #BBBA9D",
"L. c #BDB7A0",
"P. c #BDBBA3",
"I. c #C1AD94",
"U. c #C2B296",
"Y. c #C1B49A",
"T. c #C3B59D",
"R. c #C3BB9D",
"E. c #CABB9E",
"W. c #C6B6A2",
"Q. c #C9B6A0",
"!. c #C5BBA3",
"~. c #CBBBA2",
"^. c #CBBCA2",
"/. c #C3BCA9",
"(. c #CABCAC",
"). c #BFC1A3",
"_. c #BFC2A8",
"`. c #C4C2A4",
"'. c #CBC3A5",
"]. c #C5C2AC",
"[. c #CDC3A8",
"{. c #CDC3AC",
"}. c #CCCAAD",
"|. c #D1C1A6",
" X c #D5C3A9",
".X c #D2CBAE",
"XX c #D4CCB2",
"oX c #DBCBB2",
"OX c #DECFB6",
"+X c #DACFB4",
"@X c #D5CCB9",
"#X c #D3D0B3",
"$X c #D9D0B5",
"%X c #D8D2B6",
/* pixels */
"H y 2 < < 2 2 < > = > = ; = = = : 1 = 1 w 9 $ & 9 9 9 , 9 # # _ oX~.c q e e p Y ",
"q 1 : q q 1 1 = = = * * * X * * = - * : - : 9 q 5 @ - ; # o 7 } {.F.N k k q r b ",
"| ] A ] / / / T ^ / ( ) ) ) ) ) ) o.{ 1.o.1.z.c.r.} w.} / / { C.`.J.N.p.p... .t.",
":.:.| ' ' ] ] ] #._ _ %._ _ -.-.=.4.m.V.a.5.p.s.r.z.c.t.} ) { -.<.O.-.>.;.} w.j.",
"g g g 7 4 6 g r 7 : 1 j q k z j x V $.5.Z h 8 r r c z r j j l g 8 7 : ; 5 q l b ",
"# # + X     X . . + @ @ @ % @ @ - / U.T.^ : ; ; ; ; , , q 9 9 ; ; $ + + + + X - ",
"z e 1 ; ; - - - : c c c z k l x ) A.$X$X..l q q e z z b z t q q , 9 9 e 9 9 q z ",
"w.[ / ^ ( ^ ^ / } A.R.F.V.).).].}.}.$X$XF.e.r.r.u.s.z.w...w.w.......[ } } } [  .",
"L.H.H.S.b.6.{ V Z _ 0.s.A.A.N.A.c.r.e.N.k.k.a.$.2.6.k.C.V.C.j.j.e.a.a.e.a.k.7.V.",
":.f.P.b.] b z z r j k m } s.^ k z z l c b m T T T Z Z a.6.Z x m z c b c c c m Z ",
"v 2./.j.z 1 , 1 j 2 q j } U.c q 9 q q , 2 0 0 0 t b c n.} 5 + $ % % % > = = > 1 ",
"8 1.{.A.c w 2 w k k j c s.~.T t w t w 2 < < y < w J T |.u.r $ , < < < < , > > 1 ",
"6 C.XXz.l q w 2 k k w ^ U.E.b 9 0 0 0 < < < < 3 2 j c R.0.q = , < < < < < > , q ",
"d S.XXn.c q q 9 w k z / Y.`.) k e w 1 q 1 ; 1 z J T x 5.[ j ; ; ; , $ ; , ; 1 q ",
"d./.@X{.n.] ] E / ( ..a.R..XR.c.u...( { } / { e.j.j.k.H.S.| Z ] E N N / ) / [  .",
"P./.(.(.W.n.h.n. ...X.w.5.A.A.c.I.U.!.].L.b.k.n.G.S.H.L.L.b.h.h.h.h.t.h.n.n.n./.",
"] ] W [ [ E ] n.] l z z f l c c ^ a.`.'.d.' N / ] / / ) / E / / E E N E E E [  .",
"9 $ $ & @ - r c.b $ @ + # @ + @ : ) R.G.l ; 5 e e 9 q e w , , 9 , , & , $ & , q ",
"0 0 & % $ ; z U.T 9 & $ , & & , q -.[.U.q ; 0 0 0 < 0 G y i 3 < < < < 0 0 < < w ",
"i & & $ $ @ l z.N 5 & , 1 & & & w u. XI.q $ 1 1 1 1 q 1 , & & < w 0 < < , > , w ",
"& 5 5 # # 7 Z G.) 8 ; ; : : ; 1 q } F.a.j : q : 1 : q : & & & , 9 & 0 9 5 5 5 5 ",
"b r r N Z { | h.:.) ) ) ) ) _ ) ) 7.).V.$.%.#._ / / ) V T R R T z z z b b t ' ' ",
"] ] |  .>.6.| { o.{ _ A A ) ) ) ) A 4.3.4.m.m.a.-.;.a.-._ 0.w.>. .h. .] ] ]  . .",
"] N N ' M N M v n m k f 7 f l l l x h h B C A A V m ^ V / / A Z | h.d.' ' ' E ] ",
"b r 8 5 - 4 r 5 - 9 9 # + + , 1 q q ; 4 8 8 l r 5 q e 9 9 j j l A  ./ r e r t z ",
"t 9 & 9 & 5 5 5 ; 0 0 ; # - q w p t t t t t U t e w i 0 0 e t E I.n.T e i e i p ",
"p t 0 9 ; ; & 5 1 9 q 1 * : r t w t t t t t t r e t e 0 0 9 ; ^ ^.z.J 9 i 0 w p ",
"U t 0 9 9 q e 5 ; ; ; : * - f j t l l r r 8 x g 8 l 7 4 e 9 4 ) #XC.l r 0 i G b ",
"..} _ ( ( _ T N ^ ) ( ^ ) ) / _ } X.r.e.>.>.>.[ ) Z A B N ] | d.H.3.' ) } [ } } ",
"0.0.[ ) { } a.p.) V V V / _ { ) _ p.A.s.w.r.X...[ ) A C N N ] { { { { { #.;.w.t.",
"R T c c x x 5.K.B : : : j l l l x ) s._ T R R T T c c c k k z J K T J J J T ^ [ ",
"H G k 2 1 : ( N.h * # $ 1 , ; # : ^ s.( c J S K S K k G F D D F D D 3 3 2 y y H ",
"! Q Y a w w ( U.V = $ , 9 & & $ 4 } ~.q.R K K I I I D K F F F L L u u u u H D P ",
"! s a a w q ( U.x - - $ 9 & & # 4 | !.q.R J R K I I H H K K J D y u a a G p y H ",
"` R T G c V 5.V.B h h x v n M v C 3.).r._ ( ( ( ` ` ` ` ^ c k r z T T E E T N / ",
"l.p.e.1.a.C.J.J.M.m.C.A.S.S.S.S.H.].]./.Y.R.T.E.Q.T.E.T.T.V.b.k.c.n.p.r.g.X.d.b.",
"] / A A / { ) A C C ' { ] { { |  .:.| ' :.2.f.f.b.k.n.h.S.L.H.P.`.J.+.{ ) ) / ] ",
"8 7 7 7 7 6 - - o X + # O - - O # # # o 6 6 8 g g l l l v C C :.).C.x f q q : : ",
"w e 9 1 9 9 1 , @ @ @ @ + + - o X + + + = = @ = = = = > ; # O M }.U.k , w 0 0 p ",
"R G G t e w 0 e 9 & & 9 ; ; ; : ; ; 9 9 r q 5 5 5 9 9 e 0 9 8 2.XXE.^ S t G U Y "
};
